<svg viewBox="0 -80 3199.999999999999 2119.9999999999995" fill="none" xmlns="http://www.w3.org/2000/svg" xmlns:xlink="http://www.w3.org/1999/xlink" overflow="visible" width="3199.999999999999px" height="2119.9999999999995px"><g id="Master/Scenes/Back in Town"><path id="City" opacity="0.5" fill-rule="evenodd" clip-rule="evenodd" d="M3200 1395.08C3196.52 1395.08 3193.71 1397.36 3193.71 1400.16V1402.66C3193.71 1405.49 3190.78 1407.77 3187.27 1407.73C3177.86 1407.63 3172.11 1407.56 3172.11 1407.56V1411.85H3163.65V1360.35C3163.65 1357.55 3160.83 1355.28 3157.35 1355.28H3152.31C3148.83 1355.28 3146.01 1353.01 3146.01 1350.21V1335.9C3146.01 1331.88 3141.97 1328.63 3136.99 1328.63H3032.64C3027.65 1328.63 3023.62 1331.88 3023.62 1335.9V1451.98C3023.62 1455.99 3019.57 1459.25 3014.59 1459.25H2987.95C2982.96 1459.25 2978.93 1462.5 2978.93 1466.51V1557.05C2978.93 1561.07 2974.88 1564.32 2969.9 1564.32H2965.7C2960.71 1564.32 2956.68 1561.07 2956.68 1557.05V1552.55C2956.68 1548.54 2952.63 1545.28 2947.65 1545.28H2925.14C2921.67 1545.28 2918.85 1543.02 2918.85 1540.21V1537.81C2918.85 1535 2916.02 1532.73 2912.55 1532.73H2907.33C2903.85 1532.73 2901.03 1530.46 2901.03 1527.66V1522.08C2901.03 1518.06 2896.99 1514.82 2892.01 1514.82H2887.81C2882.82 1514.82 2878.78 1518.06 2878.78 1522.08V1559.25C2878.78 1562.05 2875.96 1564.32 2872.48 1564.32H2869.93C2866.46 1564.32 2866.51 1562.05 2866.51 1559.25V1472.89C2866.51 1472.49 2866.47 1472.1 2866.4 1471.71H2803.76C2803.69 1472.1 2803.65 1472.49 2803.65 1472.89V1554.06C2803.65 1557.39 2800.83 1561.05 2796.81 1561.86L2789.97 1561.91V1179.89C2789.97 1175.88 2785.92 1172.62 2780.94 1172.62H2635.29C2630.3 1172.62 2626.26 1175.88 2626.26 1179.89V1333.68C2626.26 1337.69 2622.22 1340.95 2617.23 1340.95H2611.84C2606.85 1340.95 2602.81 1344.2 2602.81 1348.21V1452.81H2595.56L2591.43 1437.05C2589.48 1429.59 2576.38 1429.29 2573.89 1436.66L2570.26 1447.45C2569.19 1450.61 2565.62 1452.81 2561.55 1452.81H2536.16C2531.17 1452.81 2527.13 1449.56 2527.13 1445.54V1270.76C2527.13 1266.75 2523.09 1263.49 2518.11 1263.49H2505C2500.01 1263.49 2495.97 1266.75 2495.97 1270.76V1364.14C2495.97 1368.16 2491.93 1371.41 2486.94 1371.41H2415.97C2410.98 1371.41 2406.94 1368.16 2406.94 1364.14V1362.55C2406.94 1358.53 2402.9 1355.28 2397.92 1355.28H2373.71C2368.72 1355.28 2364.68 1358.53 2364.68 1362.55V1371.32C2364.68 1375.33 2360.64 1378.58 2355.65 1378.58H2342.53C2337.54 1378.58 2333.5 1375.33 2333.5 1371.32V1367.92C2333.5 1363.91 2329.46 1360.65 2324.47 1360.65H2309.16C2304.18 1360.65 2300.13 1363.91 2300.13 1367.92V1446.89C2300.13 1450.82 2296.25 1454.03 2291.37 1454.15C2283.9 1454.34 2276.59 1454.44 2270.91 1454.34C2265.74 1454.26 2261.67 1457.55 2261.79 1461.71C2262.11 1473.25 2261.01 1493.11 2260.35 1503.55C2260.11 1507.41 2256.14 1510.41 2251.34 1510.41H2244.26C2239.27 1510.41 2235.23 1513.66 2235.23 1517.68V1563.96C2235.23 1567.98 2231.19 1571.23 2226.2 1571.23H2224.25C2219.26 1571.23 2215.22 1567.98 2215.22 1563.96V1476.42C2215.22 1475.23 2214.86 1474.05 2214.16 1473L2201.08 1453.23C2197.54 1447.89 2187.92 1448.17 2184.86 1453.7L2170.3 1480.08C2169.79 1481.01 2169.52 1482.02 2169.52 1483.03V1545.46C2169.52 1548.26 2166.7 1550.53 2163.22 1550.53H2158.89C2155.41 1550.53 2152.59 1548.26 2152.59 1545.46V1303.89C2152.59 1299.88 2148.54 1296.63 2143.56 1296.63H2043.98C2039 1296.63 2034.96 1299.88 2034.96 1303.89V1332.29C2034.96 1335.08 2032.14 1337.36 2028.66 1337.36H2028.23C2024.75 1337.36 2021.93 1339.63 2021.93 1342.43V1417.38C2021.93 1421.39 2017.89 1424.65 2012.91 1424.65H1988.67C1983.68 1424.65 1979.64 1421.39 1979.64 1417.38V1308.77C1979.64 1304.76 1975.6 1301.51 1970.61 1301.51H1913.65C1908.67 1301.51 1904.63 1298.25 1904.63 1294.24V1209.77C1904.63 1205.76 1900.59 1202.51 1895.6 1202.51H1818.28C1813.29 1202.51 1809.25 1205.76 1809.25 1209.77V1244.07C1809.25 1248.08 1805.21 1251.33 1800.22 1251.33H1699.58V1156.12C1699.58 1153.32 1696.76 1151.05 1693.28 1151.05H1688.4C1684.92 1151.05 1682.1 1148.78 1682.1 1145.98V1056.26C1682.1 1053.46 1679.28 1051.19 1675.8 1051.19H1670.91C1667.44 1051.19 1664.62 1048.92 1664.62 1046.12L1475.46 1042.81C1475.46 1045.39 1473.05 1047.57 1469.86 1047.86L1466.75 1048.13C1463.56 1048.42 1461.15 1050.59 1461.15 1053.18V1149.77H1451.61V1428.35C1451.61 1430.56 1450.37 1432.65 1448.22 1434.03L1440.31 1439.12C1438.16 1440.49 1436.91 1442.59 1436.91 1444.8V1451.62C1436.05 1451.61 1435.44 1451.6 1435.44 1451.6V1473.48C1435.44 1477.5 1431.4 1480.75 1426.42 1480.75H1423.8C1418.82 1480.75 1414.78 1477.5 1414.78 1473.48V1201.24C1414.78 1197.22 1410.74 1193.97 1405.76 1193.97H1326.39C1321.41 1193.97 1317.37 1197.22 1317.37 1201.24V1502.28L1270.11 1467.58C1268.41 1466.22 1267.47 1464.37 1267.47 1462.44V1247.74V1222.75C1267.47 1218.73 1263.42 1215.48 1258.44 1215.48H1247.57C1242.58 1215.48 1238.54 1212.22 1238.54 1208.21V1201.24C1238.54 1197.22 1234.5 1193.97 1229.51 1193.97H1171.41C1166.42 1193.97 1162.38 1190.72 1162.38 1186.7V1056.43C1162.38 1052.41 1158.34 1049.16 1153.36 1049.16H1103.86C1098.88 1049.16 1094.84 1052.41 1094.84 1056.43V1340.8C1094.84 1344.82 1090.8 1348.08 1085.81 1348.08H1040.78C1035.81 1348.08 1031.76 1344.82 1031.76 1340.8V1102.8C1031.76 1098.78 1027.72 1095.53 1022.73 1095.53H958.872C953.887 1095.53 949.844 1098.78 949.844 1102.8V1473.48C949.844 1477.5 945.806 1480.75 940.821 1480.75H938.213C933.228 1480.75 929.19 1477.5 929.19 1473.48V1465.11C929.19 1460.96 924.888 1457.64 919.731 1457.82L902.983 1458.39C897.825 1458.56 893.524 1455.24 893.524 1451.08V1426.29H893.581V1412.74C893.581 1408.73 889.543 1405.47 884.558 1405.47H871.44C866.455 1405.47 862.411 1402.22 862.411 1398.21V1387.55H852.429V1224.04C852.429 1220.03 848.386 1216.77 843.401 1216.77H748.537C743.551 1216.77 739.508 1220.03 739.508 1224.04V1365.94C739.508 1369.95 735.47 1373.21 730.485 1373.21H726.396C721.41 1373.21 717.373 1369.95 717.373 1365.94V1224.04C717.373 1220.03 713.329 1216.77 708.35 1216.77H625.064C620.079 1216.77 616.036 1220.03 616.036 1224.04V1339.05C616.036 1343.06 611.998 1346.32 607.013 1346.32H593.252C588.266 1346.32 584.223 1349.57 584.223 1353.59V1399.47L579.324 1397.17C575.55 1395.38 570.743 1396.04 567.9 1398.71L560.681 1405.52C559.285 1406.83 558.521 1408.51 558.521 1410.24V1424.43C558.521 1426.85 556.402 1428.93 553.461 1429.4L549.309 1430.07C546.362 1430.55 544.249 1432.64 544.249 1435.05V1538.49C544.249 1542.5 540.211 1545.75 535.226 1545.75H530.844C525.858 1545.75 521.821 1542.5 521.821 1538.49V1352.81C521.821 1350.88 520.867 1349.03 519.179 1347.67L514.825 1344.16C513.131 1342.8 512.183 1340.95 512.183 1339.03V1305.05C512.183 1303.13 511.23 1301.28 509.535 1299.92L495.464 1288.59C493.77 1287.22 492.816 1285.37 492.816 1283.45V1197.95C492.816 1195.97 491.817 1194.08 490.048 1192.71L468.43 1175.97C466.661 1174.6 465.656 1172.71 465.656 1170.74V1145.24L461.486 1141.03V1119.81C461.486 1118.33 454.169 1111.58 454.169 1110.1V1086.32C454.169 1083.9 452.05 1081.82 449.103 1081.35C449.103 1081.35 443.727 1078.74 443.727 1076.33V1050.21L439.558 1047.68V1028.34L433.292 1024.13V1008.1C433.292 1007.03 432.999 1005.97 432.436 1005.01L424.946 886H420.771H415.539V1015.79C415.539 1016.85 415.246 1017.9 414.689 1018.86L401.249 1042.02C400.692 1042.99 400.399 1044.03 400.399 1045.1V1062.75C400.399 1064.68 399.446 1066.53 397.757 1067.9C397.757 1067.9 384.22 1079.88 384.22 1081.8V1107.39H373.503V1136.19C373.503 1137.53 372.842 1138.82 371.665 1139.77L367.776 1142.91C366.599 1143.86 365.938 1145.15 365.938 1146.49V1169.21L360.195 1173.83V1199.89H354.027V1284.19C354.027 1286.99 351.207 1289.26 347.726 1289.26H344.843C341.362 1289.26 338.542 1291.53 338.542 1294.33V1304.85C338.542 1308.87 334.499 1312.13 329.514 1312.13C324.528 1312.13 320.491 1315.37 320.491 1319.39V1522.55C320.491 1526.57 316.447 1529.82 311.468 1529.82H307.625C302.634 1529.82 298.597 1526.57 298.597 1522.55V1514.18C298.597 1511.38 295.777 1509.11 292.302 1509.11H292.296C288.816 1509.11 285.996 1506.84 285.996 1504.04V1325.43C285.996 1321.42 281.952 1318.16 276.973 1318.16H90.6389C85.6536 1318.16 81.616 1321.42 81.616 1325.43V1553.14C81.616 1557.04 77.7794 1560.29 72.9319 1560.41C66.9128 1560.56 46.8568 1560.51 42.7503 1560.1C42.2046 1560.06 41.7049 1560.17 41.1823 1560.22V1488.02C41.1823 1484.01 37.1389 1480.75 32.1594 1480.75H9.02487C4.03958 1480.75 0.00195312 1484.01 0.00195312 1488.02V2000.79C0.00195312 2004.81 4.04532 2008.06 9.03061 2008.06L3200 2001.42V1395.08Z" fill="url(#paint0_linear_301_10848d5858dc0-0121-4545-b3d5-f2c53691a47a)"/><g id="Floor"><path id="Path 4" d="M1343.7 2002.5C1345.64 2002.5 1347.2 2004.07 1347.2 2006C1347.2 2007.87 1345.74 2009.4 1343.89 2009.49L1343.7 2009.5H510C508.067 2009.5 506.5 2007.93 506.5 2006C506.5 2004.13 507.964 2002.6 509.808 2002.51L510 2002.5H1343.7Z" fill="#090E2B"/><path id="Path 4 Copy 3" d="M2690.23 2005C2692.16 2005 2693.73 2006.57 2693.73 2008.5C2693.73 2010.37 2692.26 2011.9 2690.42 2011.99L2690.23 2012H1647.29C1645.36 2012 1643.79 2010.43 1643.79 2008.5C1643.79 2006.63 1645.26 2005.1 1647.1 2005.01L1647.29 2005H2690.23Z" fill="#090E2B"/></g><g id="Flying Objects" opacity="0.5" transform="translate(132 -107) scale(1 1)"><g id="Flying Objects/Cloud 2"><path id="cloud" fill-rule="evenodd" clip-rule="evenodd" d="M171.044 473.895C161.387 459.137 151.9 436.733 163.002 423.548C169.563 415.755 180.669 416.373 188.629 421.934C196.591 427.496 202.142 436.87 207.441 445.961C198.936 424.955 190.257 403.137 189.653 379.753C189.05 356.369 226.317 265.573 350 363.098C376.808 384.236 397.695 454.747 493 473.793C490.055 473.793 494.421 478.67 491.476 478.67L171.044 473.895Z" fill="#E4E8FD"/></g></g><g id="Flying Objects" opacity="0.5" transform="translate(2500 -107) scale(1 1)"><g id="Flying Objects/Cloud 2"><path id="cloud" fill-rule="evenodd" clip-rule="evenodd" d="M171.044 473.895C161.387 459.137 151.9 436.733 163.002 423.548C169.563 415.755 180.669 416.373 188.629 421.934C196.591 427.496 202.142 436.87 207.441 445.961C198.936 424.955 190.257 403.137 189.653 379.753C189.05 356.369 226.317 265.573 350 363.098C376.808 384.236 397.695 454.747 493 473.793C490.055 473.793 494.421 478.67 491.476 478.67L171.044 473.895Z" fill="#E4E8FD"/></g></g><g id="Flying Objects" opacity="0.5" transform="matrix(-1 0 0 1 1949 -186) scale(1 1)"><g id="Flying Objects/Balloon Red"><g id="Group"><path id="Fill 1" fill-rule="evenodd" clip-rule="evenodd" d="M395.733 422.735C403.805 416.547 370.836 390.662 366.161 395.629C363.94 397.989 385.249 430.771 395.733 422.735M332.167 419.995C341.112 430.593 352.764 410.462 357.037 401.278C368.832 375.929 323.242 409.421 332.167 419.995M346.301 716.794C338.014 712.01 384.477 650.857 359.252 614.771C356.3 610.549 364.94 603.496 365.231 594.799C368.459 578.684 371.356 560.424 363.252 545.335C344.796 555.451 342.756 514.804 362.174 526.759C377.761 493.831 372.972 444.088 362.689 409.649C343.727 446.678 304.363 427.166 338.366 394.726C349.469 384.692 366.601 385.017 379.151 392.334C400.494 404.775 408.517 425.762 401.55 431.36C397.135 434.907 384.799 436.037 371.023 414.928C376.927 438.146 378.951 463.066 378.506 491.692C378.278 506.406 372.25 527.346 369.181 532.783C377.333 553.681 378.474 590.699 368.447 609.666C395.246 641.684 354.587 721.579 346.301 716.794" fill="#090E2B"/><path id="Path" fill-rule="evenodd" clip-rule="evenodd" d="M454.173 269.995C451.464 333.578 394.224 421.47 319.104 374.935C270.244 344.668 242.49 297.195 246.357 243.142C257.54 86.8715 469.848 109.328 454.173 269.995" fill="#FF0057"/><path id="Path_2" fill-rule="evenodd" clip-rule="evenodd" d="M284.114 265.892C288.148 250.398 260.657 251.349 263.98 265.621C264.387 278.022 283.96 280.299 284.114 265.892" fill="white"/><path id="Path_3" fill-rule="evenodd" clip-rule="evenodd" d="M368.516 258.067C369.097 240.446 354.901 239.104 347.28 245.246C339.66 251.388 338.613 265.014 352.566 267.866C363.298 270.06 368.22 266.993 368.516 258.067" fill="white"/><path id="Path_4" fill-rule="evenodd" clip-rule="evenodd" d="M428.392 263.088C444.758 266.059 451.424 237.655 432.888 237.802C416.96 238.261 409.255 260.261 428.392 263.088" fill="white"/><path id="Path_5" fill-rule="evenodd" clip-rule="evenodd" d="M309.364 327.825C336.286 331.985 317.762 288.393 301.276 301.649C293.949 310.16 296.375 327.537 309.364 327.825" fill="white"/><path id="Path_6" fill-rule="evenodd" clip-rule="evenodd" d="M381.75 345.918C394.077 352.363 410.275 341.55 413.032 330.219C415.124 321.622 410.186 302.408 391.473 311.065C373.282 319.481 368.382 333.422 381.75 345.918Z" fill="white"/><path id="Path_7" fill-rule="evenodd" clip-rule="evenodd" d="M286.125 198.678C282.02 222.626 322.156 230.026 322.609 205.52C324.621 175.361 291.078 168.228 286.125 198.678" fill="white"/><path id="Path_8" fill-rule="evenodd" clip-rule="evenodd" d="M375.138 181.036C372.699 215.14 416.66 214.439 417.872 187.722C419.682 165.357 378.615 153.898 375.138 181.036" fill="white"/></g></g></g><g id="Master/Character/Standing [colors]" transform="translate(1687 509.5) scale(1 1)"><g id="Master/Character/Standing [colors]"><g id="Lower Body/Standing" transform="translate(-64 629) scale(1 1)"><g id="Lower Body/Standing/Walking 2"><path id="leg-2" fill-rule="evenodd" clip-rule="evenodd" d="M801 747.688C802.13 758.518 834.14 827.459 834.14 827.459C852.388 831.665 883.25 810.154 879.722 804.322C876.195 798.49 861.354 729 861.354 729C861.354 729 813.162 739.77 801 747.688" fill="#757eff"/><path id="leg-1" fill-rule="evenodd" clip-rule="evenodd" d="M271.575 679C271.575 679 236.248 731.727 219.944 748.545C204.877 764.086 252.552 794 252.552 794L330 719.908L271.575 679Z" fill="#757eff"/><path id="pant" fill-rule="evenodd" clip-rule="evenodd" d="M812.636 370.807C833.322 472.312 862.428 689.154 867 728.962C833.431 749.112 783.399 768.69 778.435 766.884C777.456 766.528 776.062 756.413 765.768 743.232C758.122 733.439 766.998 722.667 758.014 705.467C752.954 695.779 748.774 693.582 748.887 672.382C748.919 666.21 746.422 647.889 744.814 641.642C728.117 576.739 711.117 504.272 695.221 450.757C672.52 374.321 601.527 251.59 601.527 251.59C601.527 251.59 571.896 344.449 540.536 422.884C481.274 571.098 354.398 741.893 343.473 751.365C337.687 756.38 260.476 706.024 256 676.918C271.602 653.767 264.047 653.137 274.435 635.817C279.818 626.842 288.328 626.942 293.391 611.907C298.137 597.822 297.803 589.742 311.974 576.689C330.423 559.698 341.064 531.222 347.274 519.221C379.68 456.595 409.797 387.02 418.593 330.016C451.475 116.905 446.064 72.8723 512.302 0.421702C579.053 -1.91741 636.901 -0.972368 688.017 0.421702C689.413 32.8883 790.364 261.525 812.636 370.807Z" fill="#001386"/><g id="shoe-1"><path id="Fill 7" fill-rule="evenodd" clip-rule="evenodd" d="M327.67 852.488C322.415 829.363 297.251 826.707 281.95 804.618C277.629 798.38 282.34 784.816 273.928 779.907C261.679 772.758 261.121 792.611 240.209 771.449C234.672 765.847 236.562 754.982 227.23 746.789C225.713 745.458 223.136 739.795 214.272 745.496C209.33 748.673 181.434 767.495 180.986 780.686C213.029 811.247 235.817 839.7 260.198 852.224C277.964 861.35 291.192 864.312 324.119 866.762C331.249 867.293 329.031 858.477 327.67 852.488" fill="#090E2B"/><path id="Fill 9" fill-rule="evenodd" clip-rule="evenodd" d="M308.13 870.85C275.176 870.85 261.836 863.504 241.061 847.904C223.726 834.886 207.247 817.329 194.026 804.301C171.429 782.034 175.275 776.727 178.359 773.064C184.917 765.273 189.515 763.109 191.984 762.887C209.185 761.34 211.174 791.943 208.995 803.439C225.75 821.26 238.325 835.946 253.408 846.051C274.47 860.163 287.574 862.513 327.703 865.78C324.825 871.746 316.669 870.85 308.13 870.85" fill="#FFB201"/><path id="Fill 12" fill-rule="evenodd" clip-rule="evenodd" d="M264.902 815.62C264.323 817.261 278.846 811.953 286.814 813.277C287.063 813.318 281.146 816.266 278.178 820.27C276.673 822.3 276.119 823.515 278.333 822.876C291.347 819.123 295.016 820.759 296.593 820.443C301.29 819.504 294.054 816.085 283.943 818.378C286.394 816.817 290.253 814.241 289.59 812.625C287.33 807.116 265.913 812.755 264.902 815.62" fill="#FFB201"/></g><path id="Fill 14" fill-rule="evenodd" clip-rule="evenodd" d="M614.374 218.774C611.466 229.242 607.297 242.804 603.945 250.791C602.448 254.359 602.224 252.627 602 252.237C606.555 230.249 613.166 208.253 619.106 186.501C624.951 167.998 629.2 137.528 639 122C628.918 151.512 622.905 188.066 614.374 218.774Z" fill="white"/><g id="shoe-2"><path id="Fill 16" fill-rule="evenodd" clip-rule="evenodd" d="M991.636 799.287C980.838 785.371 940.441 788.323 911.138 790.091C901.275 790.685 884.063 782.119 878.351 784.382C870.034 787.678 884.698 802.294 856.022 811.021C848.43 813.332 845.016 805.629 828.184 809.734C825.449 810.401 821.244 811.353 820.073 818.917C819.419 823.134 823.069 857.718 835.559 867.807C890.509 849.357 945.988 827.522 994.182 809.417C998.888 807.648 994.399 802.848 991.636 799.287" fill="#090E2B"/><path id="Fill 18" fill-rule="evenodd" clip-rule="evenodd" d="M985.912 818.675L855.415 868.927C846.757 872.485 832.511 874.261 828.575 867.424C825.635 862.317 823.412 849.671 823.562 848.721C824.612 842.1 852.381 837.228 866.76 853.045C915.992 839.146 996.322 805.85 996.322 805.85C996.322 805.85 1000.18 812.618 985.912 818.675" fill="#FFB201"/><path id="Fill 21" fill-rule="evenodd" clip-rule="evenodd" d="M920.736 799.46C921.639 791.092 922.716 789.301 920.82 788.728C916.284 787.357 901.204 802.21 901.573 807.637C901.85 811.705 910.011 796.661 919.051 791.562C916.434 796.632 916.822 809.105 919.89 805.471C934.843 787.764 938.74 789.183 938.616 788.772C938.031 786.82 930.315 787.885 920.736 799.46" fill="#FFB201"/></g><path id="Fill 23" fill-rule="evenodd" clip-rule="evenodd" d="M288 683C308.821 702.793 330.901 721.303 355 737C329.265 729.245 305.634 702.126 288 683" fill="#FFB201"/><path id="Fill 25" fill-rule="evenodd" clip-rule="evenodd" d="M864 705C856.172 711.877 845.458 715.019 836.363 719.891C827.307 724.367 816.517 730.379 807 731C818.063 723.896 830.523 719.754 842.253 714.006C849.066 711.357 857.1 705.054 864 705" fill="#FFB201"/></g></g><g id="Upper Body/Standing" transform="translate(69 -172) scale(1 1)"><g id="Upper Body/Standing/Hoodie 2"><path id="Fill 1" fill-rule="evenodd" clip-rule="evenodd" d="M443.381 413C443.381 413 449.694 466.828 444.265 471.265C438.836 475.702 418 478.586 418 478.586C418 478.586 468.092 512.34 480.521 520.769C483.175 522.568 511.617 531.561 513.937 524.053C520.717 502.116 522 486.279 522 486.279C522 486.279 501.318 477.148 495.496 472.59C494.609 453.568 496.722 432.89 496.722 432.89L443.381 413Z" fill="#757eff"/><path id="Combined Shape" fill-rule="evenodd" clip-rule="evenodd" d="M573.653 560.416C572.988 557.258 572.346 554.207 571.736 551.216C567.361 529.757 528.348 486.852 528.348 486.852C525.444 508.388 515.033 529.395 515.033 529.395C515.033 529.395 413.669 472.006 396.566 472C390.162 471.998 383.528 481.313 377.734 493.274C366.452 496.153 327.504 508.417 317.157 542.503C313.586 554.263 303.582 618.917 303.582 632.248C303.582 645.581 297.306 713.14 296.435 722.33C293.227 756.138 307.851 776.459 337.945 787.664C337.757 794.675 338.098 801.704 339.744 805.744C340.803 808.34 342.724 810.454 344.649 812.573C347.565 815.782 350.49 819.001 350.445 823.918C350.434 825.039 349.285 827.305 347.943 829.952C345.379 835.01 342.109 841.459 344.727 843.971C361.605 860.178 540.992 861.251 561.636 856.606C582.279 851.962 590.132 844.464 590.145 839.533C590.155 835.444 588.175 833.044 586.187 830.633C583.954 827.927 581.711 825.208 582.264 820.069C582.564 817.293 585.146 814.85 588.028 812.123C590.018 810.239 592.152 808.22 593.774 805.863C611.323 808.22 620.899 769.829 619.933 756.298C617.487 722.029 600.22 703.829 590.008 700.174C586.972 623.697 579.45 587.957 573.653 560.416Z" fill="#3615F6"/><path id="Fill 8" fill-rule="evenodd" clip-rule="evenodd" d="M369.662 456.92C376.291 449.925 390.175 430.818 405.67 430.247C420.153 429.714 438.417 430.16 445.099 430.489C446.826 442.814 446.209 465.426 445.07 470.974C442.921 473.321 440.953 473.352 434.677 474.855C474.237 488.18 482.75 496.204 490.284 501.175C495.008 504.293 507.81 518.283 513.306 524.165C509.526 510.132 513.906 487.824 515.582 483.5C502.65 478.811 494.867 474.978 494.432 473.045C493.826 470.356 494.432 442.733 495.427 443.58C496.422 444.427 527.245 455.724 538.306 467.775C542.857 472.734 540.739 481.25 543.74 493.807C546.575 505.662 525.457 517.477 517.749 531.226C516.967 532.621 516.123 537.747 514.767 536.908C493.677 523.85 434.627 520.764 394.491 492C384.842 490.143 369.398 494.856 361.329 498.242C359.183 495.346 358.142 488.965 359.864 485.596C360.821 483.722 369.1 476.062 369.807 474.994C370.94 473.284 360.314 466.783 369.662 456.92Z" fill="#FFB201"/><path id="Fill 10" fill-rule="evenodd" clip-rule="evenodd" d="M446.533 456.436C438.009 460.171 429.101 461.503 419.817 461.663C394.445 463.782 417.541 468.217 426.834 471.292C429.223 472.228 432.801 473.156 434.981 474.523C435.37 474.767 435.45 475.013 435.334 474.999C429.469 473.645 423.429 472.353 417.327 471.144C413.38 470.069 409.117 469.605 405.929 466.73C403.131 463.686 407.271 460.51 410.203 460.063C416.384 458.434 422.663 458.924 428.835 458.545C434.878 458.188 440.922 457.306 446.915 456.009C447.17 455.937 446.797 456.328 446.533 456.436" fill="#090E2B"/><path id="Fill 12" fill-rule="evenodd" clip-rule="evenodd" d="M361.11 498.559C369.872 493.325 385.631 488.044 395 492.949C388.057 493.692 380.665 493.899 373.717 495.772C369.541 496.716 365.471 497.84 361.322 498.989C361.06 499.069 360.87 498.7 361.11 498.559" fill="black"/><path id="Fill 14" fill-rule="evenodd" clip-rule="evenodd" d="M510.458 460.986C520.806 466.624 520.234 474.137 516.651 483.181C516.56 483.478 516.339 484.24 516.38 483.925C517.483 473.994 517.508 468.14 507.023 460.04C506.69 459.786 510.069 460.819 510.458 460.986" fill="#090E2B"/><path id="Fill 16" fill-rule="evenodd" clip-rule="evenodd" d="M458.925 711.309C458.582 716.436 458.46 728.923 458.094 734.048C450.676 728.143 442.984 722.598 435.063 717.392C421.132 708.636 406.842 698.939 390.163 696.716C388.25 691.197 394.094 673.798 395.931 662.703C401.098 638.557 403.145 613.127 397.644 588.781C395.911 581.659 387.615 557.404 380.15 556C379.219 556.466 382.432 557.748 385.13 563.977C399.811 594.459 398.084 629.449 392.526 662.058C392.385 668.465 382.869 697.946 389.108 699.616C411.601 704.5 436.074 721.441 458.033 734.905C456.9 750.63 455.554 766.33 453.414 781.952C452.338 789.235 451.433 796.611 449.8 803.791C411.988 806.032 374.409 797.93 338.394 787.008C338.018 786.876 337.84 787.461 338.184 787.59C342.638 789.386 347.104 791.188 351.628 792.835C360.693 795.972 369.935 799.028 379.36 800.897C402.115 806.241 425.663 810.059 449.018 806.994C447.988 810.912 446.699 814.758 444.99 818.48C445.752 824.808 451.814 809.444 452.336 807.69C460.954 778.641 461.247 748.527 460.92 718.709C459.911 710.552 458.974 710.234 458.925 711.309Z" fill="#090E2B"/><path id="Fill 18" fill-rule="evenodd" clip-rule="evenodd" d="M595.044 749.944C590.185 733.103 584.741 716.954 574.864 700.36C574.807 700.213 581.044 698.623 589.008 699.992C589.324 700.047 589.282 699.957 589.215 699.882C588.455 698.745 582.732 696.753 578.587 697.111C574.441 697.469 574.661 700.205 574.659 700.138C574.08 678.12 570.891 643.408 569.476 621.213C569.05 612.705 568.24 601.967 566.123 593.754C562.483 578.913 557.914 564.305 552.548 550.037C552.349 549.465 550.827 547.584 551.016 548.083C555.629 562.505 559.972 579.573 562.388 594.506C565.881 624.614 566.299 655.173 571.68 685.077C571.816 685.668 574.488 699.972 574.553 700.191C579.676 712.459 586.826 732.265 590.613 749.944C594.042 764.646 594.858 781.808 593.325 796.791C591.453 806.984 588.516 809.207 587.593 810.647C587.33 811.058 584.927 815.441 592.787 805.844C600.647 796.247 598.073 760.445 595.044 749.944Z" fill="#090E2B"/><path id="Path" fill-rule="evenodd" clip-rule="evenodd" d="M486.646 608.42C485.734 609.423 484.377 610.006 482.999 610C481.623 609.978 480.289 609.392 479.362 608.411C478.434 607.43 477.956 606.099 478.003 604.794C478.051 602.146 480.442 599.893 482.999 600.004C484.261 600.004 485.502 600.497 486.433 601.37C487.37 602.237 487.948 603.484 487.996 604.794C488.048 606.1 487.567 607.429 486.646 608.42" fill="black"/><path id="Path_2" fill-rule="evenodd" clip-rule="evenodd" d="M488.877 598.945C487.89 597.877 486.554 597.121 485.116 596.766C486.403 583.594 485.256 570.299 483.105 557.28C480.901 544.092 477.664 530.799 473.054 518.213C473.886 518.437 474.306 519.18 474.943 519.992C476.144 521.524 476.315 517.983 474.804 516.757C472.455 514.851 467.463 516.782 468.047 519.898C468.358 521.555 469.815 518.749 470.532 518.574C470.903 518.36 471.301 518.228 471.702 518.16C474.232 527.849 476.311 537.935 477.874 547.834C480.571 563.95 481.501 580.361 481.924 596.677C480.306 596.979 478.788 597.783 477.678 598.955C476.253 600.442 475.494 602.489 475.548 604.484C475.588 606.484 476.451 608.44 477.878 609.82C479.282 611.225 481.284 612.035 483.272 611.999C485.26 612.004 487.239 611.194 488.656 609.811C490.092 608.441 490.952 606.482 490.997 604.484C491.055 602.487 490.294 600.443 488.877 598.945" fill="#090E2B"/><path id="Path_3" fill-rule="evenodd" clip-rule="evenodd" d="M544.646 596.42C543.734 597.423 542.377 598.006 540.999 598C539.623 597.977 538.289 597.392 537.362 596.411C536.434 595.43 535.956 594.099 536.003 592.794C536.051 590.146 538.442 587.893 540.999 588.004C542.261 588.004 543.502 588.497 544.433 589.37C545.37 590.237 545.948 591.484 545.996 592.794C546.048 594.101 545.567 595.429 544.646 596.42" fill="black"/><path id="Path_4" fill-rule="evenodd" clip-rule="evenodd" d="M545.893 587.868C544.808 586.675 543.296 585.865 541.69 585.572C542.291 561.483 538.422 536.823 528.337 514.836C528.341 514.837 528.345 514.836 528.349 514.837C528.758 514.737 530.565 515.715 530.149 514.334C528.615 511.228 524.49 514.148 525.052 516.975C525.817 518.44 526.514 516.076 527.471 515.157C531.518 526.576 533.934 538.545 535.79 550.495C537.464 562.108 538.304 573.878 538.933 585.596C537.35 585.91 535.87 586.714 534.784 587.877C533.37 589.373 532.618 591.432 532.671 593.44C532.711 595.451 533.566 597.419 534.983 598.808C536.375 600.223 538.361 601.036 540.333 600.999C542.306 601.005 544.27 600.19 545.675 598.799C547.099 597.42 547.953 595.449 547.997 593.44C548.055 591.43 547.3 589.374 545.893 587.868" fill="#090E2B"/></g></g><g id="Head" transform="translate(399 26) scale(1 1)"><g id="Head/Short Dark"><path id="hair" fill-rule="evenodd" clip-rule="evenodd" d="M240.46 89.8187C240.46 89.8187 247.123 114.152 245.68 124.187C243.802 137.241 233.453 136.107 234.838 140.403C239.572 155.093 226.4 160.203 226.4 160.203C226.4 160.203 223.66 145.986 223.91 131.694C224.161 117.401 221.654 107.121 221.654 107.121L240.46 89.8187Z" fill="#090E2B"/><path id="face" fill-rule="evenodd" clip-rule="evenodd" d="M192.591 267.027C224.243 264.488 238.02 246.702 239.539 229.483C241.504 207.197 236.006 190.565 233.191 174.26C223.43 117.741 239.107 106.653 187.154 96.2284C159.934 90.7674 99.9897 97.9554 85.2797 132.766C79.5307 146.371 88.6707 170.319 90.2747 189.915C94.4537 240.979 154.101 270.115 192.591 267.027Z" fill="#757eff"/><path id="hair_2" fill-rule="evenodd" clip-rule="evenodd" d="M123.859 41.6834C86.5717 47.4364 78.1607 71.7324 76.2617 82.4054C75.4827 79.1624 74.9367 75.5634 76.4447 72.9134C76.9877 71.8554 75.3327 71.0214 74.8097 72.0874C72.6967 76.5784 72.7037 81.6154 73.8027 86.3604C69.7517 85.7334 65.5237 86.3634 61.9697 88.4944C61.1587 88.9754 61.9017 90.2394 62.7187 89.7804C65.1057 88.7554 67.7357 88.4754 70.3067 88.7714C65.6577 90.4604 58.9817 94.3084 54.3397 103.02C49.3437 112.397 47.7857 126.146 49.9527 136.984C54.0637 157.539 70.9267 165.455 68.4037 170.349C61.0697 184.572 69.3377 208.431 79.1347 218.428C92.9597 232.535 107.864 235.393 108.118 219.343C108.373 203.294 103.613 173.284 107.714 170.427C115.87 180.516 119.608 181.756 120.542 175.271C122.457 161.958 118.021 155.641 113.179 148.566C106.774 139.204 131.555 136.011 131.853 120.636C135.609 124.733 138.436 132.626 153.202 136.694C165.612 140.113 180.879 140.207 193.084 122.541C202.303 138.249 224.097 132.01 230.786 130.29C266.413 121.133 253.484 53.9264 211.314 60.7074C184.461 65.0254 158.986 36.2624 123.859 41.6834Z" fill="#090E2B"/><path id="ear" fill-rule="evenodd" clip-rule="evenodd" d="M113.767 179.492C109.26 169.727 100.831 161.487 86.4628 164.487C71.5988 167.592 69.7878 197.776 96.1848 208.696C104.335 212.067 107.242 210.432 109.479 208.211C114.731 202.994 115.788 183.872 113.767 179.492" fill="#757eff"/><path id="Fill 9" fill-rule="evenodd" clip-rule="evenodd" d="M89.6863 174.421C90.2853 174.498 90.8773 174.608 91.4613 174.755C92.6283 175.046 93.7633 175.465 94.8543 175.982C97.0273 177.031 99.0233 178.521 100.58 180.373C101.012 180.798 101.328 181.318 101.69 181.798C102.046 182.282 102.389 182.772 102.654 183.311C102.937 183.835 103.231 184.353 103.492 184.884L104.121 186.535L104.426 187.359L104.628 188.21C104.762 188.775 104.896 189.339 105.011 189.903C105.183 191.042 105.272 192.186 105.356 193.312C105.385 193.71 105.087 194.056 104.69 194.085C104.36 194.109 104.066 193.908 103.958 193.611L103.925 193.519C103.555 192.492 103.3 191.455 102.928 190.463C102.71 189.978 102.51 189.492 102.311 189.009L102.012 188.286L101.635 187.605L100.901 186.25L100.03 184.997C99.7643 184.565 99.4293 184.188 99.0893 183.819C98.7413 183.458 98.4683 183.032 98.0753 182.719C96.6743 181.3 94.9983 180.211 93.2293 179.316C92.7863 179.092 92.3253 178.904 91.8723 178.693C91.4063 178.52 90.9433 178.326 90.4703 178.165C89.5473 177.833 88.5013 177.566 87.6533 177.376L87.4813 177.338C86.6493 177.151 86.1263 176.326 86.3133 175.495C86.4733 174.782 87.1043 174.296 87.8043 174.29C88.5143 174.284 89.0753 174.332 89.6863 174.421Z" fill="#090E2B"/><path id="Fill 11" fill-rule="evenodd" clip-rule="evenodd" d="M99.0444 183.838C98.9554 183.809 98.7864 183.793 98.6424 183.768C98.3094 183.75 97.9564 183.738 97.5884 183.793C96.8584 183.879 96.1274 184.103 95.4524 184.429C94.7724 184.745 94.1524 185.191 93.5984 185.705C93.0254 186.198 92.5624 186.83 92.1124 187.455L92.0494 187.542C91.3584 188.504 90.0174 188.722 89.0564 188.03C88.0944 187.338 87.8764 185.998 88.5684 185.036C88.6164 184.969 88.6774 184.895 88.7324 184.835C89.4764 184.029 90.2534 183.245 91.1864 182.621C92.0954 181.983 93.0964 181.454 94.1664 181.116C95.2324 180.769 96.3474 180.583 97.4834 180.602C98.0484 180.602 98.6304 180.685 99.2184 180.812C99.5264 180.903 99.8174 180.976 100.156 181.138C100.467 181.29 100.884 181.463 101.349 182.078C101.786 182.726 101.616 183.605 100.969 184.043C100.322 184.48 99.4424 184.311 99.0044 183.664C99.1614 183.927 99.1724 183.846 99.0444 183.838Z" fill="#090E2B"/><path id="Fill 13" fill-rule="evenodd" clip-rule="evenodd" d="M145.053 259.708C141.498 257.838 132.491 252.752 130.524 250.367C129.498 249.124 130.99 250.378 132.717 251.372C135.015 252.696 144.119 257.846 155.462 261.559C156.446 261.881 162.723 263.646 162.913 263.964C163.09 264.261 162.56 264.88 161.843 264.873C157.02 264.83 149.413 262.001 145.053 259.708Z" fill="#090E2B"/></g></g><g id="Expressions" transform="translate(520 159) scale(1 1)"><g id="Expressions/Relaxed"><path id="Fill 1" fill-rule="evenodd" clip-rule="evenodd" d="M93.917 85.9778C78.288 85.3498 67.34 84.9098 56.819 84.4878C53.549 84.3558 50.673 90.0738 56.294 97.5688C64.259 108.189 84.891 111.876 93.281 99.0538C97.555 92.5238 97.31 86.1148 93.917 85.9778" fill="white"/><path id="nose" fill-rule="evenodd" clip-rule="evenodd" d="M82.7871 55.7084C86.8281 59.4834 96.9611 74.6464 87.8281 76.8394C85.9421 77.2914 77.3211 77.5114 78.5921 75.6374C79.6051 74.1434 85.9771 75.0244 86.8981 72.1854C88.1081 68.4554 83.7121 61.1524 80.9721 56.1434C80.5011 55.2804 82.1521 54.9674 82.7871 55.7084" fill="#090E2B"/><path id="eye" fill-rule="evenodd" clip-rule="evenodd" d="M101.14 49.4726C102.716 48.4496 104.002 46.9449 104.812 43.8791C105.442 41.4928 104.117 41.182 103.446 41.8768C103.179 42.1534 102.89 42.5185 102.567 42.9254C101.4 44.4003 99.7974 46.4242 97.2379 46.7697C95.5386 47 93.0129 46.5252 90.427 44.7174C88.7963 43.5795 87.3545 43.558 88.271 45.8261C89.496 48.8593 96.5465 52.4533 101.14 49.4726ZM45.7528 54.7979C53.7067 59.04 63.5732 54.6834 63.3552 47.0155C63.2851 44.5515 61.754 44.5133 60.8831 46.19C58.6542 50.4862 51.8747 54.579 43.8676 49.2316C43.8604 49.2268 43.853 49.2219 43.8454 49.2169C43.2217 48.8006 41.4469 47.6162 40.7587 48.3637C39.6704 49.5454 41.6555 52.6145 45.7528 54.7979Z" fill="#090E2B"/><path id="eybrow" fill-rule="evenodd" clip-rule="evenodd" d="M106.892 19.0603C97.9002 11.4322 82.9075 17.8364 81.4786 26.4153C80.9228 29.7588 84.7289 30.4299 86.5262 28.5224C93.1586 21.4848 101.912 23.1875 105.337 23.8539C106.047 23.9919 106.528 24.0854 106.714 24.0478C109.751 23.4369 108.668 20.5673 106.892 19.0603ZM27.9799 30.9433C38.6859 22.6052 49.269 24.8492 60.7363 31.6406C64.9372 32.9563 65.9182 27.4971 62.7947 24.082C55.9812 16.6332 41.7869 15.2534 31.6092 20.0844C28.5028 21.5578 24.6711 25.6739 23.7097 27.9688C22.3602 31.1906 24.1328 33.9401 27.9799 30.9433Z" fill="#090E2B"/></g></g><g id="Facial Accesories" transform="translate(517 209) scale(120 110)"><g id="Facial Accesories/None" stroke="none" stroke-width="1" fill="none" fill-rule="evenodd" fill-opacity="0"/></g><g id="Glass" transform="translate(520 164) scale(120 75)"><g id="Glass/None" stroke="none" stroke-width="1" fill="none" fill-rule="evenodd" fill-opacity="0"/></g></g></g><g id="Master/Character/Standing [colors]" transform="translate(1025 509.5) scale(1 1)"><g id="Master/Character/Standing [colors]"><g id="Lower Body/Standing" transform="translate(-64 629) scale(1 1)"><g id="Lower Body/Standing/Jeans"><path id="leg-1" fill-rule="evenodd" clip-rule="evenodd" d="M388.773 656.006C380.013 673.252 377 806.115 377 806.115L414.927 811L464 654.746C464 654.746 397.533 638.76 388.773 656.006" fill="#757eff"/><g id="shoe-1"><path id="Fill 9" fill-rule="evenodd" clip-rule="evenodd" d="M339.799 850.628C339.799 850.628 332.756 871.548 341.013 871.548C366.93 871.548 403.232 871.732 425.846 871.732C429.32 871.732 432.306 864.024 431.389 857.969C430.471 851.913 428.752 848.071 428.752 848.071L339.799 850.628Z" fill="#FFB201"/><path id="Fill 12" fill-rule="evenodd" clip-rule="evenodd" d="M417.93 801.219C418.892 801.966 416.728 815.043 420.334 824.059C423.941 833.075 430.092 846.823 428.89 852.834C427.688 858.845 409.751 869.62 381.489 855.223C371.751 850.262 344.775 864.774 339.967 858.162C335.158 851.55 348.207 836.681 360.83 823.458C373.451 810.235 376.456 798.08 377.566 798.227C378.674 798.373 377.299 805.514 382.591 802.861C388.197 800.05 389.982 797.236 393.888 797.012C401.088 796.598 407.076 807.258 410.2 809.06C411.994 810.096 416.967 800.472 417.93 801.219" fill="#090E2B"/><path id="Fill 14" fill-rule="evenodd" clip-rule="evenodd" d="M380.053 814.676C381.842 813.324 383.713 812.525 385.765 811.99C387.796 811.474 389.934 811.322 392.026 811.555C392.552 811.587 393.061 811.733 393.578 811.818L394.351 811.97L395.1 812.201C395.596 812.361 396.102 812.499 396.588 812.681C397.065 812.886 397.54 813.094 398.01 813.314C398.243 813.424 398.483 813.525 398.711 813.644L399.374 814.037L400.695 814.827C401.528 815.417 402.321 816.053 403.111 816.684C403.634 817.102 403.72 817.864 403.302 818.389C402.92 818.866 402.25 818.98 401.739 818.677L401.607 818.6C400.807 818.128 400.056 817.591 399.262 817.138L398.052 816.504L397.45 816.186C397.244 816.093 397.032 816.02 396.823 815.935C395.181 815.178 393.436 814.769 391.689 814.53C389.934 814.287 388.155 814.433 386.418 814.775C384.705 815.115 382.93 815.8 381.515 816.624L381.396 816.694C380.816 817.03 380.073 816.834 379.736 816.255C379.423 815.718 379.569 815.04 380.053 814.676" fill="#FF0057"/><path id="Fill 16" fill-rule="evenodd" clip-rule="evenodd" d="M379.4 822.829C380.829 821.729 382.29 821.088 383.919 820.655C385.523 820.224 387.224 820.102 388.884 820.286C389.302 820.313 389.709 820.414 390.121 820.476C390.536 820.536 390.936 820.647 391.328 820.782C391.721 820.91 392.122 821.022 392.507 821.168L393.633 821.665C394.394 821.985 395.041 822.485 395.741 822.889C396.394 823.358 397.005 823.879 397.612 824.391C398.115 824.817 398.177 825.57 397.753 826.073C397.379 826.514 396.756 826.616 396.27 826.35L396.132 826.275C395.504 825.933 394.916 825.542 394.306 825.201C393.674 824.913 393.084 824.529 392.434 824.315C391.19 823.725 389.862 823.462 388.55 823.239C387.224 823.052 385.882 823.163 384.562 823.397C383.268 823.643 381.896 824.155 380.837 824.745L380.708 824.817C380.131 825.138 379.406 824.931 379.085 824.354C378.794 823.831 378.938 823.183 379.4 822.829" fill="#FF0057"/></g><path id="leg-2" fill-rule="evenodd" clip-rule="evenodd" d="M577.669 658.65C573.73 667.848 588.473 800.034 588.473 800.034L582.913 813.189C582.913 813.189 593.203 831.297 601.26 840.002C609.318 848.705 655.15 826.452 647.411 821.578C645.029 820.078 637.436 802.887 637.545 798.127C638.687 748.902 651 654.253 651 654.253C651 654.253 581.609 649.45 577.669 658.65" fill="#757eff"/><g id="shoe-2"><path id="Fill 18" fill-rule="evenodd" clip-rule="evenodd" d="M747.416 870.994H583.101C581.581 865.95 580.252 860.658 580.486 856.472L745.192 860.206C746.175 863.338 746.928 867.051 747.416 870.994" fill="#FFB201"/><path id="Fill 20" fill-rule="evenodd" clip-rule="evenodd" d="M585.907 805C585.907 805 597.395 812.902 600.864 820.611C608.959 822.539 639.255 823.1 637.413 820.719C631.533 813.117 639.257 805.666 643.883 805.666C648.508 805.666 680.786 828.463 685.026 828.463C689.266 828.463 732.541 845.755 737.938 849.225C743.335 852.693 745.496 861.194 745.496 861.194H580.479C580.479 861.194 574.728 817.67 585.907 805" fill="#090E2B"/><path id="Fill 22" fill-rule="evenodd" clip-rule="evenodd" d="M660.45 820.92C660.693 820.019 661.046 819.322 661.569 818.6C662.078 817.893 662.779 817.238 663.667 816.81C664.538 816.363 665.612 816.203 666.539 816.372C667.025 816.418 667.436 816.597 667.86 816.75C668.259 816.936 668.617 817.165 668.968 817.398C669.519 817.761 669.671 818.502 669.307 819.053C669.03 819.472 668.535 819.659 668.072 819.565L667.862 819.521C667.258 819.396 666.712 819.253 666.235 819.266C665.752 819.236 665.354 819.326 664.949 819.507C664.546 819.69 664.143 819.989 663.748 820.384C663.376 820.769 662.984 821.308 662.702 821.734L662.599 821.89C662.236 822.44 661.495 822.592 660.945 822.228C660.504 821.937 660.32 821.403 660.45 820.92" fill="#FF0057"/><path id="Fill 24" fill-rule="evenodd" clip-rule="evenodd" d="M669.043 826.332C669.286 825.432 669.639 824.734 670.161 824.012C670.67 823.305 671.371 822.651 672.258 822.222C673.13 821.775 674.203 821.615 675.131 821.784C675.616 821.83 676.027 822.01 676.451 822.162C676.852 822.348 677.209 822.577 677.561 822.81C678.111 823.173 678.262 823.915 677.899 824.464C677.623 824.884 677.127 825.071 676.664 824.978L676.453 824.934C675.85 824.808 675.303 824.665 674.828 824.679C674.344 824.649 673.946 824.738 673.541 824.919C673.138 825.103 672.735 825.401 672.341 825.796C671.968 826.181 671.577 826.721 671.294 827.146L671.192 827.302C670.828 827.852 670.087 828.004 669.537 827.64C669.096 827.349 668.913 826.816 669.043 826.332" fill="#FF0057"/></g><g id="jeans"><path id="cloth" fill-rule="evenodd" clip-rule="evenodd" d="M689.57 0.125854H567.573H511.165C486.168 27.1249 445.061 115.525 444.152 206.776C443.678 254.282 449.627 310.739 432.195 395.158C423.258 438.439 369.961 496.905 353.929 665.148C379.126 685.8 485.628 686.222 495.69 673.642C511.26 563.491 541.005 444.493 572.037 322.691C574.462 381.465 568.576 411.724 562.376 446.541C543.468 552.713 533.495 609.335 532.321 675.857C555.986 697.831 619.369 688.182 661.496 668.971C661.496 668.971 673.225 552.918 677.338 493.164C682.617 416.475 714.266 268.273 712.188 170.177C710.284 80.2608 689.57 0.125854 689.57 0.125854Z" fill="#FFB201"/><path id="line" fill-rule="evenodd" clip-rule="evenodd" d="M629.698 138.124C626.18 139.201 621.51 140.565 620.166 144.116C619.701 145.306 618.944 147.885 618.552 149.147C603.213 204.295 587.765 266.542 572.594 321.681C572.436 322.344 571.852 323.154 572.035 322.447C575.604 306.334 579.032 290.098 582.937 274.067C593.234 232.638 603.572 189.257 615.446 148.216C616.47 145.187 617.151 141.121 620.052 139.303C620.9 137.818 631.876 135.65 629.698 138.124" fill="#090E2B"/></g></g></g><g id="Upper Body/Standing" transform="translate(69 -172) scale(1 1)"><g id="Upper Body/Standing/Hands Up 1"><path id="hand-2" fill-rule="evenodd" clip-rule="evenodd" d="M618.806 189.843C618.806 189.843 651.925 118.822 655.081 111.742C667.568 83.7317 658.33 85.8039 661.609 69.8883C665.302 51.9733 659.673 42.8265 661.609 41.6944C672.61 35.2649 674.989 60.7834 676.438 56.0713C681.297 40.2826 690.094 35.1489 695.279 29.3678C702.16 21.6963 713.969 34.8152 717.004 38.3553C723.906 46.4045 720.49 62.3627 717.004 75.5216C709.531 103.731 695.826 99.6121 684.204 122.553C679.929 130.992 670.017 181.426 655.081 231.763C629.412 318.272 593.897 420.032 582.695 420.032C570.244 420.032 532.809 422.211 529.567 420.032C521.865 414.856 618.806 189.843 618.806 189.843Z" fill="#757eff"/><path id="t-4" fill-rule="evenodd" clip-rule="evenodd" d="M499.588 502.133C495.343 493.907 477.913 476.395 484.451 464.212C490.989 452.031 512.584 460.59 515.793 466.037C534.005 496.959 507.078 516.648 499.588 502.133" fill="#FF0057"/><path id="hand-1" fill-rule="evenodd" clip-rule="evenodd" d="M293.859 248.851C293.859 248.851 285.958 123.19 280.436 105.73C274.913 88.2709 272.961 90.3837 257.713 77.6678C240.061 62.946 240.842 54.9801 243.576 53.943C251.386 57.1211 224.267 27.2689 244.955 22.2322C272.243 15.5883 275.214 37.7951 288.625 41.653C290.932 42.3156 284.891 31.6106 290.061 26.3375C295.49 20.7986 295.827 29.6507 298.052 33.2007C304.731 43.8487 309.652 62.7531 309.652 74.4696C309.652 90.0928 348.454 215.337 348.454 215.337C348.454 215.337 389.149 407.118 383.254 413.98C367.549 432.265 340.967 437.514 333.76 440.966C328.344 443.56 293.859 248.851 293.859 248.851Z" fill="#757eff"/><path id="neck" fill-rule="evenodd" clip-rule="evenodd" d="M446.713 420C446.713 420 445.882 449.599 440.194 465.473C437.002 474.381 421.322 468.288 429.178 486.198C443.521 518.894 502.541 560.914 513.693 550.335C524.842 539.759 542.629 534.779 529.172 502.008C527.435 497.778 497.863 482.511 496.491 477.918C487.92 449.239 498.612 420 498.612 420H446.713Z" fill="#757eff"/><g id="tshirt"><path id="t-3" fill-rule="evenodd" clip-rule="evenodd" d="M564.213 278.529C579.457 240.623 612.287 198.972 609.304 187.518C606.321 176.063 611.306 172.96 615.532 174C623.916 176.063 654.72 190.096 665.007 195.239C675.294 200.383 670.151 206.384 670.151 206.384C670.151 206.384 639.205 293.227 630.479 320.883C609.304 387.992 591.488 437.097 579.155 465.312C564.837 498.067 564.213 537.018 564.213 537.018C564.213 537.018 518.592 535.269 521.299 509C524.435 478.559 493.246 474.069 493.246 457.294C493.246 438.701 548.97 316.434 564.213 278.529Z" fill="#FF0057"/><path id="t-2" fill-rule="evenodd" clip-rule="evenodd" d="M502.059 529.726C520.352 527.647 513.146 489.112 513.146 489.112C513.146 489.112 537.734 503.203 553.712 506.757C553.712 529.444 589.315 557.127 586.377 604.57C583.44 652.012 564.424 755.157 581.14 781.425C597.857 807.695 593.542 814.146 586.377 823.698C579.213 833.251 531.263 849.009 488.759 842.49C467.515 839.232 408.297 819.528 385.61 824.303C374.824 826.575 359.523 839.252 359.523 827.978C359.523 806.485 384.56 796.973 390.368 657.705C392.709 601.583 361.212 554.492 360.018 538.969C358.824 523.447 362.406 520.461 380.316 500.163C398.228 479.864 406.898 419.884 417.7 440.138C428.502 460.391 445.45 462.995 451.959 501.357C451.959 501.357 493.511 530.698 502.059 529.726Z" fill="#FF0057"/><path id="t-1" fill-rule="evenodd" clip-rule="evenodd" d="M284 225.693C284 225.693 309.846 200.888 335.775 196.999C361.706 193.109 353.85 201.789 353.85 201.789C353.85 201.789 379.402 375.824 400.146 409.534C420.891 443.243 427.151 456.341 427.151 456.341L363.775 550.17C363.775 550.17 317.77 473.303 315.176 422.739C312.583 372.174 309.315 354.546 304.129 336.394C298.943 318.244 286.593 251.624 284 225.693" fill="#FF0057"/></g></g></g><g id="Head" transform="translate(399 26) scale(1 1)"><g id="Head/Long Dark"><path id="Fill 1" fill-rule="evenodd" clip-rule="evenodd" d="M172.75 123.673C181.558 108.745 199.107 88.6932 230.141 95.644C273.229 105.294 235.764 153.087 237.681 176.044C244.69 259.99 223.692 291.326 194.463 291.326C165.634 291.326 152.717 272.532 167.858 235.389C181.47 202 156.533 151.162 172.75 123.673Z" fill="#090E2B"/><path id="Fill 4" fill-rule="evenodd" clip-rule="evenodd" d="M234.849 163.885C232.943 191.56 241.123 249.878 201.297 260.203C173.368 267.444 110.311 248.58 103.277 201.478C102.046 193.239 88.8109 143.438 121.793 114.66C150.373 89.7238 226.222 92.347 232.718 105.216C244.807 129.164 236.755 136.211 234.849 163.885Z" fill="#757eff"/><path id="Fill 6" fill-rule="evenodd" clip-rule="evenodd" d="M237.133 103.555C238.556 118.815 224.86 127.516 206.018 130.669C177.123 135.506 146.541 129.287 126.654 145.975C120.819 150.871 126.602 171.037 120.104 177.254C115.844 181.329 113.897 172.576 113.678 171.81C111.81 165.286 109.797 170.944 107.152 169.623C106.368 194.158 106.368 208.819 118.286 227.668C132.318 249.86 162.936 305.179 153.323 347.333C141.002 401.362 71.11 413.558 82.9582 336.524C94.8064 259.49 69.7483 267.648 57.1857 224.117C51.109 203.06 49.1167 173.937 58.1857 136.975C76.5556 62.1049 135.505 46.1876 182.945 53.6709C216.46 58.9576 235.578 86.8774 237.133 103.555Z" fill="#090E2B"/><path id="Fill 9" fill-rule="evenodd" clip-rule="evenodd" d="M102.272 163.023C97.3168 162.654 86.4748 163.725 90.993 185.836C93.9566 200.338 113.043 203.391 117.063 202.617C124.257 201.23 117.612 190.122 117.063 179.804C116.691 172.831 111.458 163.708 102.272 163.023Z" fill="#757eff"/><path id="Fill 11" fill-rule="evenodd" clip-rule="evenodd" d="M162.123 256.021C162.377 256.117 162.793 257.296 162.526 257.347C157.131 258.396 143.459 253.166 135.059 245.948C134.076 245.103 130.396 241.885 132.089 242.314C139.612 247.511 159.615 255.084 162.123 256.021Z" fill="#090E2B"/><path id="Fill 13" fill-rule="evenodd" clip-rule="evenodd" d="M98.7623 171.417C96.1763 171.552 95.2183 174.234 97.7953 174.073C101.176 173.862 105.496 176.989 107.501 179.538C105.064 179.831 103.059 180.422 101.2 182.433C100.075 183.65 100.18 185.063 101.444 183.998C104.542 181.389 107.6 181.295 108.504 181.35C108.65 181.47 110.457 185.655 110.74 187.431C112.753 187.968 109.601 170.854 98.7623 171.417" fill="#090E2B"/></g></g><g id="Expressions" transform="translate(520 159) scale(1 1)"><g id="Expressions/Happy"><g id="eye1"><path id="Fill 1" fill-rule="evenodd" clip-rule="evenodd" d="M21.0758 18.1794C22.852 10.1964 46.2248 7.39831 56.5098 13.5793C60.0658 15.6923 66.6698 21.4974 60.8228 24.6574C59.2788 25.3294 57.7788 24.6404 56.5098 23.8214C42.4918 14.0794 19.8377 23.7441 21.0758 18.1794Z" fill="#090E2B"/><path id="Fill 6" fill-rule="evenodd" clip-rule="evenodd" d="M40.0385 32.611C34.7505 34.111 30.2175 38.361 29.7965 41.883C29.5415 44.011 37.8915 49.12 45.9445 49.517C56.5385 50.038 61.8785 44.299 61.8595 42.465C61.1465 36.915 54.7555 28.437 40.0385 32.611Z" fill="white"/><path id="Fill 8" fill-rule="evenodd" clip-rule="evenodd" d="M56.4251 35.7687C48.2821 29.6147 35.6701 33.6247 29.7961 41.8827C29.4591 42.3107 29.5561 41.2337 29.7901 40.7427C32.6241 34.7957 37.7371 31.9887 43.6651 30.7647C47.2321 30.0277 50.5581 29.9677 54.0371 31.5257C55.3821 32.1267 57.7581 33.9587 59.5941 36.0307C61.0261 37.6457 62.2321 40.4147 60.5751 39.4357C59.2781 38.6687 57.5051 36.5857 56.4251 35.7687Z" fill="#090E2B"/><path id="Fill 10" fill-rule="evenodd" clip-rule="evenodd" d="M45.8406 46.276C50.3676 46.276 54.0376 42.928 54.0376 38.797C54.0376 34.667 50.3676 31.318 45.8406 31.318C41.3136 31.318 37.6436 34.667 37.6436 38.797C37.6436 42.928 41.3136 46.276 45.8406 46.276Z" fill="#090E2B"/></g><g id="eye2"><path id="Fill 4" fill-rule="evenodd" clip-rule="evenodd" d="M104.459 16.8615C107.813 18.3492 112.278 23.2874 108.561 23.2874C104.844 23.2874 96.7934 22.233 91.3964 24.46C89.5114 24.942 88.0809 25.8644 86.1879 26.0894C81.8799 26.9284 79.5393 21.7686 82.5852 18.6493C86.0263 15.1253 97.6432 13.4545 104.459 16.8615Z" fill="#090E2B"/><path id="Fill 12" fill-rule="evenodd" clip-rule="evenodd" d="M100.659 49.2345C106.03 47.9855 110.047 43.1155 109.593 39.4765C108.707 34.6545 99.4218 31.5755 94.2208 34.2085C89.0698 36.8155 85.8468 42.6405 86.2628 44.9405C86.8638 46.5325 95.1698 50.5115 100.659 49.2345Z" fill="white"/><path id="Fill 14" fill-rule="evenodd" clip-rule="evenodd" d="M96.2146 46.6063C99.7526 46.6063 102.621 43.8523 102.621 40.4563C102.621 37.0593 100.6 33.8493 96.2146 34.3063C92.6956 34.6723 89.8076 37.0593 89.8076 40.4563C89.8076 43.8523 92.6766 46.6063 96.2146 46.6063Z" fill="#090E2B"/><path id="Fill 22" fill-rule="evenodd" clip-rule="evenodd" d="M86.454 41.6378C88.483 34.0638 97.644 30.1689 104.889 33.7549C105.909 34.2869 107.565 35.4809 108.805 36.9229C109.946 38.2529 109.797 38.9499 109.331 38.8119C108.559 38.5819 106.926 37.1169 105.599 36.4869C98.889 33.3039 91.908 35.0899 86.797 42.5589C86.546 42.9459 86.308 42.0748 86.454 41.6378" fill="#090E2B"/></g><path id="Fill 18" fill-rule="evenodd" clip-rule="evenodd" d="M89.7737 88.8586C81.2033 89.8586 88.1482 99.3834 83.7083 100.649C72.341 103.888 59.9999 99.9573 58.0066 89.8586C56.8302 83.8987 60.3418 84.6194 63.1467 84.8682C65.9516 85.1171 79.8038 85.6293 87.2446 85.6293C94.4592 85.6293 90.8333 88.735 89.7737 88.8586Z" fill="#090E2B"/><path id="nose" fill-rule="evenodd" clip-rule="evenodd" d="M79.5164 56.0474C79.9047 56.0474 82.4879 60.4695 83.4357 62.0222C86.4544 66.9676 89.7813 72.5049 84.8702 75.6882C82.4912 77.2312 75.0122 74.8407 75.0122 73.0252C75.0122 70.2631 81.8382 75.1192 83.4442 72.3152C84.3858 70.8872 80.8591 63.644 79.5164 59.3488C78.7671 56.9517 79.1281 56.0474 79.5164 56.0474Z" fill="#090E2B"/></g></g><g id="Facial Accesories" transform="translate(517 209) scale(120 110)"><g id="Facial Accesories/None" stroke="none" stroke-width="1" fill="none" fill-rule="evenodd" fill-opacity="0"/></g><g id="Glass" transform="translate(520 164) scale(120 75)"><g id="Glass/None" stroke="none" stroke-width="1" fill="none" fill-rule="evenodd" fill-opacity="0"/></g></g></g><g id="Master/Character/Standing [colors]" transform="translate(396 509.5) scale(1 1)"><g id="Master/Character/Standing [colors]"><g id="Lower Body/Standing" transform="translate(-64 629) scale(1 1)"><g id="Lower Body/Standing/Jump 4"><g id="leg-2"><path id="Fill 1" fill-rule="evenodd" clip-rule="evenodd" d="M504.707 640C504.707 640 494.843 689.934 491.899 703.471C485.754 722.067 488.488 746.935 499.083 749.877C509.677 752.821 527.011 744.972 527.011 744.972L562.296 658.458L504.707 640Z" fill="#ca8f67"/><g id="Shoe-2"><path id="Fill 3" fill-rule="evenodd" clip-rule="evenodd" d="M491.899 703.47C491.899 703.47 462.64 699.88 450.392 713.204C441.735 722.622 443.658 747.708 446.997 754.942C450.335 762.174 453.023 768.714 449.685 779.842C446.346 790.97 432.934 811.435 437.942 838.699C442.949 865.962 456.98 884.813 465.882 887.038C478.124 881.474 527.011 744.971 527.011 744.971C527.011 744.971 500.837 745.84 493.815 727.239C488.942 714.325 491.899 703.47 491.899 703.47" fill="#090E2B"/><path id="Fill 13" fill-rule="evenodd" clip-rule="evenodd" d="M508.787 786.954C503.282 787.306 495.909 780.918 493.443 777.067C492.087 774.948 491.944 772.885 494.277 774.613C494.403 774.707 504.339 787.057 512.534 782.548C513.191 782.187 514.016 782.426 514.378 783.083C515.206 785.826 510.413 786.826 508.787 786.954" fill="#FFB201"/><path id="Fill 15" fill-rule="evenodd" clip-rule="evenodd" d="M502.056 801.439C496.618 801.075 490.252 796.815 486.987 793.288C485.027 791.171 485.475 788.063 487.819 790.327C487.921 790.426 497.598 800.493 505.489 798.868C506.226 798.715 506.942 799.188 507.093 799.921C507.38 801.8 503.754 801.553 502.056 801.439" fill="#FFB201"/><path id="Fill 39" fill-rule="evenodd" clip-rule="evenodd" d="M453.188 870.162C448.608 863.218 443.553 848.476 442.469 831.766C441.577 818.012 454.764 785.333 456.584 770.812C457.765 761.39 456.193 753.988 455.801 739.902C455.489 728.662 456.671 713.694 457.162 708.101C453.459 709.668 447.59 711.148 445.248 714.001C439.092 721.493 442.544 747.844 444.295 755.615C446.613 765.898 446.86 773.392 446.232 780.233C445.17 791.803 431.57 815.552 435.82 842.943C440.452 872.8 456.98 884.813 465.882 887.039C467.189 887.144 469.218 885.892 469.246 883.652C463.805 880.824 457.182 876.217 453.188 870.162" fill="#FFB201"/></g></g><g id="leg-1"><path id="Leg-1" fill-rule="evenodd" clip-rule="evenodd" d="M514.273 275.646C502.19 269.294 422.332 311.853 422.332 311.853C422.332 311.853 414.544 321.534 418.378 333.676C422.212 345.819 437.083 353.535 437.083 353.535L523.001 333.343C523.001 333.343 526.356 281.998 514.273 275.646" fill="#ca8f67"/><g id="Shoe-1"><path id="Fill 7" fill-rule="evenodd" clip-rule="evenodd" d="M399.861 299.97C395.503 300.375 393.161 298.098 387.956 310.4C382.751 322.702 377.081 345.381 375.454 349.082C368.684 364.482 353.072 382.115 349.753 397.255C336.463 457.87 363.13 467.242 366.561 465.229C377.314 458.916 385.369 439.236 394.048 429.926C410.777 411.98 452.796 355.914 453.742 349.763C439.378 345.636 432.465 335.46 432.465 325.997C432.465 316.533 433.887 304.956 433.887 304.956C433.887 304.956 412.227 298.821 399.861 299.97" fill="#090E2B"/><path id="Fill 9" fill-rule="evenodd" clip-rule="evenodd" d="M423.631 394.327C422.835 394.332 422.197 393.634 422.276 392.842C422.704 381.307 406.043 381.296 406.595 377.984C407.198 374.863 426.313 378.702 425.156 392.463C425.098 393.167 424.322 394.327 423.631 394.327" fill="#FFB201"/><path id="Fill 11" fill-rule="evenodd" clip-rule="evenodd" d="M434.733 379.241C434.102 379.241 433.538 378.8 433.405 378.159C431.056 368.171 417.149 366.851 417.744 363.59C418.635 360.683 435.564 366.733 436.063 377.607C436.102 378.458 435.581 379.251 434.733 379.241" fill="#FFB201"/><path id="Fill 36" fill-rule="evenodd" clip-rule="evenodd" d="M389.975 336.633C392.344 324.255 398.37 303.023 399.861 299.97C395.502 300.375 389.36 295.922 384.155 308.225C378.951 320.527 377.08 345.381 375.454 349.082C368.684 364.482 350.309 384.625 346.038 399.525C342.016 413.558 338.939 440.43 347.294 457.065C352.905 468.236 363.13 467.242 366.561 465.229C367.898 464.444 369.743 463.067 371.003 461.913C369.901 462.445 369.013 462.835 367.581 463.244C359.789 465.471 352.079 454.826 349.852 435.532C347.626 416.239 351.14 397.036 362.458 380.59C368.954 371.15 387.647 348.796 389.975 336.633" fill="#FFB201"/></g></g><g id="pant"><path id="pang-2" fill-rule="evenodd" clip-rule="evenodd" d="M512.96 -1L588.565 225.873C588.565 225.873 554.467 446.709 554.467 466.432C547.893 482.868 504.741 590.756 499.811 641.708C526.108 656.5 558.981 672.937 558.981 672.937C558.981 672.937 616.508 567.745 659.241 452.691C701.976 337.639 706.82 329.28 712.135 282.398C731.804 108.898 709.895 97.213 684.538 -1H512.96Z" fill="#FFB201"/><path id="Stroke 19" d="M674.016 28.4457C674.429 28.4082 674.794 28.7122 674.831 29.1247C682.478 113.256 665.534 185.514 611.752 296.324C605.611 311.571 600.052 328.775 595.034 347.619C588.112 373.609 582.556 401.289 578.014 429.98L577.77 431.538L577.391 433.994L576.871 437.448L576.339 441.048L575.233 448.717L573.314 462.453L572.077 471.517C570.874 477.202 569.266 482.965 567.225 489.011L566.828 490.178L566.215 491.933L565.795 493.109L565.364 494.292L564.922 495.485L564.237 497.295L563.523 499.135L563.03 500.383L562.263 502.29L561.461 504.244L560.906 505.577L560.041 507.625L559.134 509.738L557.858 512.667L556.847 514.956L555.422 518.142L553.843 521.627L547.184 536.189L544.895 541.233L543.492 544.359L541.84 548.08L540.578 550.96L539.961 552.384L539.348 553.804C526.059 584.733 517.116 612.917 511.187 646.814C511.116 647.222 510.727 647.495 510.319 647.423C509.911 647.352 509.638 646.963 509.71 646.555C515.561 613.101 524.34 585.186 537.307 554.761L538.276 552.5L539.219 550.325L539.88 548.813L541.238 545.732L542.302 543.346L544.186 539.161L545.399 536.489L553.308 519.178L554.774 515.921L555.814 513.584L556.806 511.331L557.442 509.872L558.359 507.745L558.947 506.364L559.517 505.011L560.34 503.029L560.868 501.738L561.381 500.468L562.122 498.599L562.599 497.374L563.063 496.164L563.514 494.967L564.169 493.191L564.592 492.019L565.005 490.852L565.409 489.691L565.804 488.532C567.683 482.967 569.19 477.648 570.348 472.413L570.612 471.188L572.289 458.91L573.75 448.495L574.668 442.114L575.217 438.375L575.757 434.764L576.152 432.183L576.533 429.746C581.082 401.007 586.647 373.278 593.584 347.233C598.618 328.333 604.195 311.072 610.382 295.716C664.074 185.086 680.957 113.09 673.337 29.2605C673.3 28.848 673.604 28.4832 674.016 28.4457Z" fill="#0023FF"/><path id="pant-1" fill-rule="evenodd" clip-rule="evenodd" d="M513.283 -1C513.283 -1 463 48.862 463 117.173C463 183.304 507.138 223.539 569.653 238.005C535.064 254.882 516.535 265.376 495.631 275.441C499.502 285.507 507.511 339.79 513.231 342.824C518.952 345.857 650.088 330.624 695.591 316.254C759.756 295.991 818.72 264.649 818.666 200.151C818.605 128.469 677.998 91.343 641.618 83.064C628.178 74.104 618.228 -1 618.228 -1H513.283Z" fill="#FFB201"/><path id="Fill 24" fill-rule="evenodd" clip-rule="evenodd" d="M617.95 79.5359C642.236 82.5759 666.327 87.6349 689.562 95.3909C696.029 97.9089 706.868 99.7879 712.81 103.583C713.757 104.186 715.057 105.411 712.697 104.589C692.424 97.5189 668.588 91.5849 647.6 87.0069C637.734 84.8439 627.638 82.8979 617.731 80.9459C616.863 80.8019 617.049 79.4059 617.95 79.5359" fill="black"/><path id="Fill 26" fill-rule="evenodd" clip-rule="evenodd" d="M570.098 237.344C599.401 216.159 643.612 185.857 680.173 184.228C680.836 184.266 680.818 185.329 680.115 185.287C660.378 186.346 639.702 196.295 622.671 205.946C613.798 211.186 605.106 216.756 596.35 222.223C587.624 227.74 578.845 232.991 569.8 238.039C569.48 238.235 569.762 237.584 570.098 237.344" fill="#090E2B"/><path id="Fill 28" fill-rule="evenodd" clip-rule="evenodd" d="M571.869 338.199C609.737 331.408 652.578 324.605 690.12 316.483C695.54 315.327 702.166 313.845 707.366 311.991C707.655 311.861 708.177 312.316 706.813 313.009C706.018 313.412 702.533 314.686 701.812 314.974C681.847 321.194 661.105 324.771 640.562 328.446C624.413 331.273 606.489 333.875 590.162 336.102C584.541 336.805 577.929 337.957 572.295 338.571C571.868 338.63 571.393 338.269 571.869 338.199" fill="#090E2B"/><path id="Fill 30" fill-rule="evenodd" clip-rule="evenodd" d="M656.156 32.7118C656.802 46.1628 656.246 61.1808 663.4 73.0398C666.172 76.5788 670.927 77.8558 675.067 79.0238C675.554 79.0658 675.509 79.8478 675.011 79.8178C657.388 79.9778 655.963 60.1318 655.094 46.7708C655.163 45.4118 654.023 29.4828 656.156 32.7118" fill="#0023FF"/><path id="Fill 32" fill-rule="evenodd" clip-rule="evenodd" d="M530.22 20.0087C530.298 19.8617 530.276 19.7287 530.208 19.6197C535.315 20.4047 540.356 21.5957 545.377 22.9277C555.405 25.2537 565.568 26.9907 575.782 28.3577C574.883 29.6037 573.667 32.7917 573.281 33.4117C570.89 38.6417 568.296 44.4287 565.559 49.4437C552.342 73.9697 535.894 84.5957 508.718 76.8217C513.155 61.2267 520.336 42.5267 530.22 20.0087M702.533 184.94C693.972 160.661 648.796 161.178 627.26 159.484C525.878 154.127 488.67 147.946 508.574 77.3277C509.665 77.7347 511.542 78.5627 512.417 78.8197C548.978 90.8407 565.378 56.6087 576.742 28.4917C576.742 28.4887 576.741 28.4877 576.741 28.4857C584.4 29.4907 592.084 30.2967 599.766 30.9547C626.446 33.1347 666.959 38.1697 689.679 22.0667C690.49 21.4507 689.393 20.2697 688.716 20.9177C666.223 36.9267 626.314 32.0387 599.841 29.9807C581.634 28.4927 563.37 26.2477 545.552 22.1877C529.859 17.3557 513.363 16.4047 497.14 18.2567C495.863 19.3317 501.366 18.8747 503.219 18.8257C509.124 18.5297 515.562 18.3157 521.442 18.7317C524.157 18.8487 526.844 19.1327 529.516 19.5237C529.489 19.5527 529.46 19.5797 529.441 19.6207C526.849 24.8217 524.437 30.0937 522.114 35.4107C513.033 56.7247 504.893 78.8597 502.262 102.024C496.647 140.081 526.452 150.4 557.824 155.397C580.785 158.993 604.004 159.979 627.157 161.317C643.795 162.318 662.623 162.644 678.486 167.945C687.872 171.277 702.458 177.124 700.892 189.221C697.05 200.64 682.738 202.272 672.447 204.195C655.519 208.504 639.559 215.709 623.542 222.495C581.258 241.182 539.442 261.577 498.42 282.909C498.441 282.92 498.442 282.922 498.451 282.928C498.456 282.934 498.458 282.938 498.463 282.944C498.389 282.939 497.798 282.768 498.722 283.752C498.773 283.737 498.809 283.709 498.846 283.684C498.786 283.655 498.74 283.6 498.873 283.653C498.883 283.648 498.893 283.643 498.903 283.637C498.908 283.631 498.911 283.624 498.916 283.618C498.917 283.621 498.919 283.626 498.92 283.629C539.947 262.473 581.799 242.219 624.068 223.705C640.014 217.009 655.981 209.867 672.773 205.646C684.354 203.785 703.949 200.368 702.533 184.94" fill="#0023FF"/></g></g></g><g id="Upper Body/Standing" transform="translate(69 -172) scale(1 1)"><g id="Upper Body/Standing/With Laptop 2"><path id="Fill 1" fill-rule="evenodd" clip-rule="evenodd" d="M518 470C531.898 477.921 553.105 494.381 565.718 532.851C576.32 565.182 600.57 611.863 601.354 616.557C613.886 621.248 664 646.25 664 646.25C664 646.25 629.463 702 626.618 702C623.772 702 606.926 701.132 590.612 699.849C537.347 695.659 534.615 659.159 531.973 644.271C523.424 596.088 521.989 475.179 518 470" fill="#3615F6"/><path id="Fill 3" fill-rule="evenodd" clip-rule="evenodd" d="M435.679 395C435.679 395 447.229 452.304 439.464 458.256C435.587 461.228 419 465.605 419 465.605C419 465.605 459.845 498.13 484.813 498.967C509.781 499.805 526.466 484.609 523.701 479.101C519.564 470.858 490.313 463.498 489.221 456.162C487.975 447.794 488.521 411.174 488.521 411.174L435.679 395Z" fill="#ca8f67"/><path id="Fill 6" fill-rule="evenodd" clip-rule="evenodd" d="M430 469.084C430 469.084 475.141 498.235 488.988 494.708C498.467 492.293 497.323 472.625 498.383 464C507.11 464.849 524.843 473.859 531.117 486.924C539.442 504.257 540.33 542.594 546.278 573.411C559.568 642.256 545.543 789.002 545.543 789.002C545.543 789.002 471.088 824.442 451.166 807.334C440.924 798.538 466.945 752.036 468.986 677.213C471.027 602.389 473.539 578.886 465.871 553.859C458.204 528.831 430 469.084 430 469.084" fill="white"/><path id="Fill 8" fill-rule="evenodd" clip-rule="evenodd" d="M420.261 464C404.19 467.258 359.922 478.625 358.573 490.674C357.393 501.228 345.849 632.519 361.438 652.189C380.107 675.744 350.697 747.759 338.818 766.969C318.152 800.389 283.216 827.985 323.586 827.26C365.637 826.507 474.745 883.935 474.745 806.287C474.745 722.088 485.91 640.58 485.999 608.514C486.299 498.981 437.079 471.643 420.261 464" fill="#3615F6"/><path id="Fill 11" fill-rule="evenodd" clip-rule="evenodd" d="M519.586 471.026C532.547 479.039 566.685 530.936 560.067 579.881C555.909 610.633 552.22 711.881 560.768 746.298C569.317 780.715 584.188 809.522 583.998 828.488C583.911 837.13 550.11 841.479 540.244 837.533C516.832 828.17 519.024 806.058 522.385 761.942C530.298 658.065 530.069 480.953 498 464C505.703 464.287 516.001 468.809 519.586 471.026" fill="#3615F6"/><path id="Fill 13" fill-rule="evenodd" clip-rule="evenodd" d="M538.705 512.535C548.375 531.147 558.774 550.76 559.724 571.894C560.925 598.556 557.874 629.021 556.942 655.743C556.667 662.722 556.411 669.704 556.397 676.681C556.409 677.088 555.712 677.123 555.717 676.687C555.052 644.182 559.108 604.533 557.629 571.984C556.683 551.179 546.437 531.034 538.02 512.085C537.875 511.817 538.555 512.243 538.705 512.535" fill="#090E2B"/><g id="macbook"><path id="Fill 15" fill-rule="evenodd" clip-rule="evenodd" d="M632.37 661.886L512.737 672.015C510.696 672.184 504.283 674.863 504.062 676.898C504.062 676.898 503.115 682.144 508.637 682.144H632.37V661.886Z" fill="white"/><path id="Fill 17" fill-rule="evenodd" clip-rule="evenodd" d="M795.427 682.144H608.125L659.804 544.887C662.941 537.138 669.583 529.392 680.064 529.392L836.657 529.51C853.488 529.388 855.6 535.634 851.981 545.475C841.556 573.816 814.743 653.168 805.525 675.402C803.831 679.485 799.848 682.144 795.427 682.144" fill="white"/><path id="Fill 19" fill-rule="evenodd" clip-rule="evenodd" d="M835.827 528.473C792.59 528.369 732.598 528.281 689.252 528.172C674.145 527.233 664.769 529.791 658.51 544.715C644.548 581.913 628.395 625.339 614.858 662.832L518.824 671.499C527.941 670.768 615.381 664.467 615.636 663.663C631.014 625.32 647.175 580.328 662.532 542.106C668.818 530.519 677.502 530.153 689.252 530.625L721.825 530.608C743.135 530.713 798.973 530.405 819.547 530.555C826.947 531.416 850.268 527.31 852.298 536.788C852.673 545.795 847.155 554.789 844.527 563.408C842.152 571.198 833.801 594.167 833.801 594.167C825.258 618.261 815.657 647.225 806.573 670.878C803.156 681.683 798.623 681.789 788.463 681.532C783.324 681.571 769.941 682.132 764.655 682.178C764.019 682.187 763.382 682.621 764.033 682.639C773.388 682.518 787.456 683.018 796.672 682.717C802.836 682.37 806.239 676.677 807.893 671.397C817.713 646.075 826.543 620.387 835.56 594.781C839.053 584.195 847.919 558.707 851.855 548.734C858.164 532.754 850.738 527.986 835.827 528.473" fill="#090E2B"/></g><path id="Fill 21" fill-rule="evenodd" clip-rule="evenodd" d="M490.796 673.475C490.431 673.503 490.215 673.522 490.204 673.525L490.796 673.475Z" fill="black"/><path id="Fill 23" fill-rule="evenodd" clip-rule="evenodd" d="M703 681.775H736.342C748.167 681.993 741.981 657.809 754.9 660.161C765.929 662.169 765.431 668.637 764.286 681.68C766.519 678.887 770.763 677.968 772.216 678.917C774.293 680.274 771.968 680.675 768.461 686.296C764.406 692.794 752.879 698.871 739.14 700.026C735.005 700.373 711.248 704 711.248 704L703 681.775Z" fill="#ca8f67"/><path id="Fill 25" fill-rule="evenodd" clip-rule="evenodd" d="M508.485 669.783C508.485 669.783 517.752 663.18 525.7 664.114C536.303 665.357 537.148 660.575 539.86 664.743C540.456 665.658 538.585 668.596 533.674 669.688C527.046 671.16 529.823 675.25 529.823 675.25C529.823 675.25 552.846 680.74 556.083 681.319C557.871 681.638 558.353 686.727 544.835 690.738C537.784 692.831 527.707 692.886 515.83 693.285C512.526 693.398 474.53 705 474.53 705L472.188 686.067L471 666.394L508.485 669.783Z" fill="#ca8f67"/><path id="Fill 27" fill-rule="evenodd" clip-rule="evenodd" d="M627 702.025C627 702.025 722.409 705.881 728.352 704.813C734.295 703.745 722.252 682 722.252 682H636.046L627 702.025Z" fill="#3615F6"/><g id="blush"><path id="Fill 29" fill-rule="evenodd" clip-rule="evenodd" d="M738.171 608.015H738.156C733.892 608.015 732.019 606.223 731.282 605.154C730.734 604.358 730.934 603.268 731.73 602.72C732.525 602.171 733.616 602.373 734.163 603.167C734.754 604.024 736.21 604.515 738.157 604.515H738.17C741.16 604.515 743.246 603.389 744.225 602.718C745.023 602.169 746.111 602.374 746.657 603.17C747.204 603.967 747.002 605.056 746.205 605.603C743.941 607.159 741.087 608.015 738.171 608.015" fill="#090E2B"/><path id="Fill 31" fill-rule="evenodd" clip-rule="evenodd" d="M726.117 610.799C723.743 616.995 716.822 622.018 710.66 622.018C704.498 622.018 701.428 616.995 703.803 610.799C706.177 604.604 713.097 599.581 719.26 599.581C725.422 599.581 728.492 604.604 726.117 610.799" fill="#FF00A4"/><path id="Fill 33" fill-rule="evenodd" clip-rule="evenodd" d="M769.985 610.799C767.61 616.995 760.689 622.018 754.527 622.018C748.365 622.018 745.295 616.995 747.67 610.799C750.045 604.604 756.964 599.581 763.127 599.581C769.29 599.581 772.36 604.604 769.985 610.799" fill="#FF00A4"/><path id="Fill 35" fill-rule="evenodd" clip-rule="evenodd" d="M729.923 595.951C729.298 597.582 727.477 598.903 725.856 598.903C724.234 598.903 723.426 597.582 724.051 595.951C724.676 594.321 726.497 593 728.118 593C729.739 593 730.548 594.321 729.923 595.951" fill="#090E2B"/><path id="Fill 37" fill-rule="evenodd" clip-rule="evenodd" d="M760.872 595.951C760.247 597.582 758.426 598.903 756.805 598.903C755.183 598.903 754.375 597.582 755 595.951C755.625 594.321 757.445 593 759.067 593C760.688 593 761.496 594.321 760.872 595.951" fill="#090E2B"/></g><path id="Fill 39" fill-rule="evenodd" clip-rule="evenodd" d="M419.02 583.172C410.53 605.552 363.375 655.529 363.375 655.529C363.375 655.529 473.684 666.975 489.979 666.973C490.357 672.702 485.559 716.183 485.559 716.183C437.553 722.984 285.153 742.653 273.084 702.373C247.939 618.452 346.605 503.936 359.273 488.451C377.018 466.759 430.374 553.239 419.02 583.172" fill="#3615F6"/><path id="Fill 42" fill-rule="evenodd" clip-rule="evenodd" d="M489.714 666.434C447.359 664.423 408.769 657.397 366.316 653.665C381.27 637.655 395.802 621.173 408.277 603.151C412.554 596.793 416.438 590.478 418.983 583.201C419.061 582.969 419.671 581.084 419.438 581C409.527 601.201 393.244 620.575 377.832 637.386C372.656 642.974 367.381 648.497 362.006 653.865C361.117 654.701 359.894 656.197 362.974 656.403C395.524 658.573 428.118 662.633 460.598 665.662C471.483 666.455 477.187 666.96 488.136 667C489.896 667.007 490.379 666.419 489.714 666.434" fill="#090E2B"/><path id="Fill 44" fill-rule="evenodd" clip-rule="evenodd" d="M486 716C442.896 721.949 400.874 727.751 357.325 726.411C356.56 726.334 357.278 727.062 358.116 727.143C388.066 730.391 453.127 723.494 462.912 721.607C481.155 718.09 485.217 717.23 486 716" fill="#090E2B"/></g></g><g id="Head" transform="translate(399 26) scale(1 1)"><g id="Head/Short Gray"><path id="hair" fill-rule="evenodd" clip-rule="evenodd" d="M240.46 89.8187C240.46 89.8187 247.123 114.152 245.68 124.187C243.802 137.241 233.453 136.107 234.838 140.403C239.572 155.093 226.4 160.203 226.4 160.203C226.4 160.203 223.66 145.986 223.91 131.694C224.161 117.401 221.654 107.121 221.654 107.121L240.46 89.8187Z" fill="#E3E4E6"/><path id="face" fill-rule="evenodd" clip-rule="evenodd" d="M192.591 267.027C224.243 264.488 238.02 246.702 239.539 229.483C241.504 207.197 236.006 190.565 233.191 174.26C223.43 117.741 239.107 106.653 187.154 96.2284C159.934 90.7674 99.9897 97.9554 85.2797 132.766C79.5307 146.371 88.6707 170.319 90.2747 189.915C94.4537 240.979 154.101 270.115 192.591 267.027Z" fill="#ca8f67"/><path id="hair_2" fill-rule="evenodd" clip-rule="evenodd" d="M123.859 41.6835C86.5717 47.4365 78.1607 71.7325 76.2617 82.4055C75.4827 79.1625 74.9367 75.5635 76.4447 72.9135C76.9877 71.8555 75.3327 71.0215 74.8097 72.0875C72.6967 76.5785 72.7037 81.6155 73.8027 86.3605C69.7517 85.7335 65.5237 86.3635 61.9697 88.4945C61.1587 88.9755 61.9017 90.2395 62.7187 89.7805C65.1057 88.7555 67.7357 88.4755 70.3067 88.7715C65.6577 90.4605 58.9817 94.3085 54.3397 103.02C49.3437 112.397 47.7857 126.146 49.9527 136.984C54.0637 157.539 70.9267 165.455 68.4037 170.349C61.0697 184.572 69.3377 208.431 79.1347 218.428C92.9597 232.535 107.864 235.393 108.118 219.343C108.373 203.294 103.613 173.284 107.714 170.427C115.87 180.516 119.608 181.756 120.542 175.271C122.457 161.958 118.021 155.641 113.179 148.566C106.774 139.204 131.555 136.011 131.853 120.636C135.609 124.733 138.436 132.626 153.202 136.694C165.612 140.113 180.879 140.207 193.084 122.541C202.303 138.249 224.097 132.01 230.786 130.29C266.413 121.133 253.484 53.9265 211.314 60.7075C184.461 65.0255 158.986 36.2625 123.859 41.6835Z" fill="#E3E4E6"/><path id="ear" fill-rule="evenodd" clip-rule="evenodd" d="M113.767 179.492C109.26 169.727 100.831 161.487 86.4628 164.487C71.5988 167.592 69.7878 197.776 96.1848 208.696C104.335 212.067 107.242 210.432 109.479 208.211C114.731 202.994 115.788 183.872 113.767 179.492" fill="#ca8f67"/><path id="Fill 9" fill-rule="evenodd" clip-rule="evenodd" d="M89.6863 174.421C90.2853 174.498 90.8773 174.608 91.4613 174.755C92.6283 175.046 93.7633 175.465 94.8543 175.982C97.0273 177.031 99.0233 178.521 100.58 180.373C101.012 180.798 101.328 181.318 101.69 181.798C102.046 182.282 102.389 182.772 102.654 183.311C102.937 183.835 103.231 184.353 103.492 184.884L104.121 186.535L104.426 187.359L104.628 188.21C104.762 188.775 104.896 189.339 105.011 189.903C105.183 191.042 105.272 192.186 105.356 193.312C105.385 193.71 105.087 194.056 104.69 194.085C104.36 194.109 104.066 193.908 103.958 193.611L103.925 193.519C103.555 192.492 103.3 191.455 102.928 190.463C102.71 189.978 102.51 189.492 102.311 189.009L102.012 188.286L101.635 187.605L100.901 186.25L100.03 184.997C99.7643 184.565 99.4293 184.188 99.0893 183.819C98.7413 183.458 98.4683 183.032 98.0753 182.719C96.6743 181.3 94.9983 180.211 93.2293 179.316C92.7863 179.092 92.3253 178.904 91.8723 178.693C91.4063 178.52 90.9433 178.326 90.4703 178.165C89.5473 177.833 88.5013 177.566 87.6533 177.376L87.4813 177.338C86.6493 177.151 86.1263 176.326 86.3133 175.495C86.4733 174.782 87.1043 174.296 87.8043 174.29C88.5143 174.284 89.0753 174.332 89.6863 174.421Z" fill="#090E2B"/><path id="Fill 11" fill-rule="evenodd" clip-rule="evenodd" d="M99.0444 183.838C98.9554 183.809 98.7864 183.793 98.6424 183.768C98.3094 183.75 97.9564 183.738 97.5884 183.793C96.8584 183.879 96.1274 184.103 95.4524 184.429C94.7724 184.745 94.1524 185.191 93.5984 185.705C93.0254 186.198 92.5624 186.83 92.1124 187.455L92.0494 187.542C91.3584 188.504 90.0174 188.722 89.0564 188.03C88.0944 187.338 87.8764 185.998 88.5684 185.036C88.6164 184.969 88.6774 184.895 88.7324 184.835C89.4764 184.029 90.2534 183.245 91.1864 182.621C92.0954 181.983 93.0964 181.454 94.1664 181.116C95.2324 180.769 96.3474 180.583 97.4834 180.602C98.0484 180.602 98.6304 180.685 99.2184 180.812C99.5264 180.903 99.8174 180.976 100.156 181.138C100.467 181.29 100.884 181.463 101.349 182.078C101.786 182.726 101.616 183.605 100.969 184.043C100.322 184.48 99.4424 184.311 99.0044 183.664C99.1614 183.927 99.1724 183.846 99.0444 183.838Z" fill="#090E2B"/><path id="Fill 13" fill-rule="evenodd" clip-rule="evenodd" d="M145.053 259.708C141.498 257.838 132.491 252.752 130.524 250.367C129.498 249.124 130.99 250.378 132.717 251.372C135.015 252.696 144.119 257.846 155.462 261.559C156.446 261.881 162.723 263.646 162.913 263.964C163.09 264.261 162.56 264.88 161.843 264.873C157.02 264.83 149.413 262.001 145.053 259.708Z" fill="#090E2B"/></g></g><g id="Expressions" transform="translate(520 159) scale(1 1)"><g id="Expressions/Happy"><g id="eye1"><path id="Fill 1" fill-rule="evenodd" clip-rule="evenodd" d="M21.0758 18.1794C22.852 10.1964 46.2248 7.39831 56.5098 13.5793C60.0658 15.6923 66.6698 21.4974 60.8228 24.6574C59.2788 25.3294 57.7788 24.6404 56.5098 23.8214C42.4918 14.0794 19.8377 23.7441 21.0758 18.1794Z" fill="#090E2B"/><path id="Fill 6" fill-rule="evenodd" clip-rule="evenodd" d="M40.0385 32.611C34.7505 34.111 30.2175 38.361 29.7965 41.883C29.5415 44.011 37.8915 49.12 45.9445 49.517C56.5385 50.038 61.8785 44.299 61.8595 42.465C61.1465 36.915 54.7555 28.437 40.0385 32.611Z" fill="white"/><path id="Fill 8" fill-rule="evenodd" clip-rule="evenodd" d="M56.4251 35.7687C48.2821 29.6147 35.6701 33.6247 29.7961 41.8827C29.4591 42.3107 29.5561 41.2337 29.7901 40.7427C32.6241 34.7957 37.7371 31.9887 43.6651 30.7647C47.2321 30.0277 50.5581 29.9677 54.0371 31.5257C55.3821 32.1267 57.7581 33.9587 59.5941 36.0307C61.0261 37.6457 62.2321 40.4147 60.5751 39.4357C59.2781 38.6687 57.5051 36.5857 56.4251 35.7687Z" fill="#090E2B"/><path id="Fill 10" fill-rule="evenodd" clip-rule="evenodd" d="M45.8406 46.276C50.3676 46.276 54.0376 42.928 54.0376 38.797C54.0376 34.667 50.3676 31.318 45.8406 31.318C41.3136 31.318 37.6436 34.667 37.6436 38.797C37.6436 42.928 41.3136 46.276 45.8406 46.276Z" fill="#090E2B"/></g><g id="eye2"><path id="Fill 4" fill-rule="evenodd" clip-rule="evenodd" d="M104.459 16.8615C107.813 18.3492 112.278 23.2874 108.561 23.2874C104.844 23.2874 96.7934 22.233 91.3964 24.46C89.5114 24.942 88.0809 25.8644 86.1879 26.0894C81.8799 26.9284 79.5393 21.7686 82.5852 18.6493C86.0263 15.1253 97.6432 13.4545 104.459 16.8615Z" fill="#090E2B"/><path id="Fill 12" fill-rule="evenodd" clip-rule="evenodd" d="M100.659 49.2345C106.03 47.9855 110.047 43.1155 109.593 39.4765C108.707 34.6545 99.4218 31.5755 94.2208 34.2085C89.0698 36.8155 85.8468 42.6405 86.2628 44.9405C86.8638 46.5325 95.1698 50.5115 100.659 49.2345Z" fill="white"/><path id="Fill 14" fill-rule="evenodd" clip-rule="evenodd" d="M96.2146 46.6063C99.7526 46.6063 102.621 43.8523 102.621 40.4563C102.621 37.0593 100.6 33.8493 96.2146 34.3063C92.6956 34.6723 89.8076 37.0593 89.8076 40.4563C89.8076 43.8523 92.6766 46.6063 96.2146 46.6063Z" fill="#090E2B"/><path id="Fill 22" fill-rule="evenodd" clip-rule="evenodd" d="M86.454 41.6378C88.483 34.0638 97.644 30.1689 104.889 33.7549C105.909 34.2869 107.565 35.4809 108.805 36.9229C109.946 38.2529 109.797 38.9499 109.331 38.8119C108.559 38.5819 106.926 37.1169 105.599 36.4869C98.889 33.3039 91.908 35.0899 86.797 42.5589C86.546 42.9459 86.308 42.0748 86.454 41.6378" fill="#090E2B"/></g><path id="Fill 18" fill-rule="evenodd" clip-rule="evenodd" d="M89.7737 88.8586C81.2033 89.8586 88.1482 99.3834 83.7083 100.649C72.341 103.888 59.9999 99.9573 58.0066 89.8586C56.8302 83.8987 60.3418 84.6194 63.1467 84.8682C65.9516 85.1171 79.8038 85.6293 87.2446 85.6293C94.4592 85.6293 90.8333 88.735 89.7737 88.8586Z" fill="#090E2B"/><path id="nose" fill-rule="evenodd" clip-rule="evenodd" d="M79.5164 56.0474C79.9047 56.0474 82.4879 60.4695 83.4357 62.0222C86.4544 66.9676 89.7813 72.5049 84.8702 75.6882C82.4912 77.2312 75.0122 74.8407 75.0122 73.0252C75.0122 70.2631 81.8382 75.1192 83.4442 72.3152C84.3858 70.8872 80.8591 63.644 79.5164 59.3488C78.7671 56.9517 79.1281 56.0474 79.5164 56.0474Z" fill="#090E2B"/></g></g><g id="Facial Accesories" transform="translate(517 209) scale(120 110)"><g id="Facial Accesories/None" stroke="none" stroke-width="1" fill="none" fill-rule="evenodd" fill-opacity="0"/></g><g id="Glass" transform="translate(520 164) scale(120 75)"><g id="Glass/None" stroke="none" stroke-width="1" fill="none" fill-rule="evenodd" fill-opacity="0"/></g></g></g></g><defs><linearGradient id="paint0_linear_301_10848d5858dc0-0121-4545-b3d5-f2c53691a47a" x1="0.00195312" y1="886" x2="0.00195312" y2="2008.06" gradientUnits="userSpaceOnUse"><stop stop-color="#A7B3FE"/><stop offset="1" stop-color="white" stop-opacity="0.01"/></linearGradient></defs></svg>