<svg width="2104" height="1929" viewBox="0 0 2104 2104" fill="none" xmlns="http://www.w3.org/2000/svg">
<g clip-path="url(#clip0_2_95)">
<path opacity="0.75" fill-rule="evenodd" clip-rule="evenodd" d="M565.649 1711.55C289.226 1423.34 531.079 1306.53 427.921 1215.29C324.762 1124.04 -11.068 847.405 133.851 596.676C278.77 345.947 484.545 514.394 495.05 264.55C500.91 125.2 584.428 16.9932 782.437 72.0738C921.509 110.76 1030.78 172.264 1273.21 106.317C1515.64 40.37 2269.86 312.626 2128.53 811.317C1987.19 1310.01 1762.51 1678.15 1512.59 1842.22C1262.67 2006.28 842.071 1999.75 565.649 1711.55Z" fill="#EDF8FF"/>
<path fill-rule="evenodd" clip-rule="evenodd" d="M1344.97 1921.41C1347.53 1921.05 1350.39 1921.68 1352.95 1921.32H1900.58C1900.32 1900.49 1888.44 1870.31 1870.25 1860.12C1852.08 1849.94 1828.48 1850.26 1810.59 1860.91C1818.65 1818.17 1824.49 1773.52 1812.73 1731.64C1800.99 1689.76 1767.55 1651.2 1724.35 1646.03C1683.84 1641.19 1644.51 1666.64 1621.19 1700.1C1597.87 1733.57 1587.41 1774.07 1577.39 1813.6C1578.53 1794.9 1569.25 1775.92 1553.83 1765.29C1538.39 1754.67 1517.34 1752.8 1500.28 1760.53C1481.23 1769.16 1468.56 1788.25 1462.68 1808.33C1456.82 1828.41 1456.83 1849.66 1456.89 1870.57C1444.69 1842.91 1409.4 1828.02 1381.07 1838.57C1352.74 1849.13 1336.09 1892.51 1344.97 1921.41Z" fill="#F67A49"/>
<path fill-rule="evenodd" clip-rule="evenodd" d="M1460.97 1921.41C1462.47 1921.2 1464.13 1921.59 1465.62 1921.36H1784.58C1784.43 1909.29 1777.5 1891.79 1766.92 1885.89C1756.33 1879.99 1742.59 1880.17 1732.17 1886.36C1736.87 1861.58 1740.26 1835.68 1733.42 1811.41C1726.58 1787.13 1707.09 1764.78 1681.93 1761.78C1658.34 1758.97 1635.44 1773.72 1621.85 1793.12C1608.27 1812.53 1602.18 1835.99 1596.34 1858.92C1597 1848.08 1591.6 1837.08 1582.62 1830.93C1573.63 1824.77 1561.36 1823.67 1551.43 1828.16C1540.33 1833.16 1532.95 1844.23 1529.53 1855.86C1526.12 1867.5 1526.12 1879.83 1526.16 1891.94C1519.06 1875.91 1498.5 1867.28 1482 1873.4C1465.49 1879.52 1455.8 1904.66 1460.97 1921.41Z" fill="#FFB201"/>
<path fill-rule="evenodd" clip-rule="evenodd" d="M400.7 1552.08H418.7L408.061 1725.08H568.339L557.7 1552.08H575.7L582.176 1725.08H582.7V1738.08H582.663L589.7 1926.08H580.7L569.139 1738.08H407.261L395.7 1926.08H386.7L400.7 1552.08Z" fill="#8E2420"/>
<path fill-rule="evenodd" clip-rule="evenodd" d="M353.7 1546.9C353.7 1537.43 361.006 1529.6 370.462 1529.07C395.009 1527.71 443.048 1525.44 491.032 1525.44C536.253 1525.44 581.422 1527.66 604.982 1529.03C614.412 1529.57 621.7 1537.4 621.7 1546.84V1557.08C621.7 1567.02 613.641 1575.08 603.7 1575.08H371.7C361.759 1575.08 353.7 1567.02 353.7 1557.08V1546.9Z" fill="#FF0057"/>
<path d="M62.2015 1926.69L1078.08 1926.44C1080.01 1926.44 1081.58 1924.87 1081.58 1922.94C1081.58 1921.07 1080.11 1919.54 1078.27 1919.45L1078.08 1919.44L62.1998 1919.69C60.2668 1919.69 58.7002 1921.26 58.7007 1923.19C58.7011 1925.06 60.1658 1926.59 62.0095 1926.68L62.2015 1926.69Z" fill="#090E2B"/>
<path d="M2094.08 1927.44C2096.01 1927.44 2097.58 1925.87 2097.58 1923.94C2097.58 1922.07 2096.12 1920.54 2094.27 1920.45L2094.08 1920.44H1401.08C1399.15 1920.44 1397.58 1922.01 1397.58 1923.94C1397.58 1925.81 1399.04 1927.34 1400.89 1927.43L1401.08 1927.44H2094.08Z" fill="#090E2B"/>
<path fill-rule="evenodd" clip-rule="evenodd" d="M1416.97 798.87H413.188C400.423 798.87 390.076 788.523 390.076 775.758V67.053C390.076 54.288 400.423 43.938 413.188 43.938H1416.97C1429.73 43.938 1440.08 54.288 1440.08 67.053V775.758C1440.08 788.523 1429.73 798.87 1416.97 798.87Z" fill="#090E2B"/>
<path fill-rule="evenodd" clip-rule="evenodd" d="M1374.47 763.37H370.688C357.923 763.37 347.576 753.023 347.576 740.258V31.5525C347.576 18.7875 357.923 8.4375 370.688 8.4375H1374.47C1387.23 8.4375 1397.58 18.7875 1397.58 31.5525V740.258C1397.58 753.023 1387.23 763.37 1374.47 763.37Z" fill="white"/>
<path fill-rule="evenodd" clip-rule="evenodd" d="M370.688 5.4375H1374.47C1388.89 5.4375 1400.58 17.1302 1400.58 31.5525V740.258C1400.58 754.68 1388.89 766.37 1374.47 766.37H370.688C356.266 766.37 344.576 754.68 344.576 740.258V31.5525C344.576 17.1302 356.266 5.4375 370.688 5.4375ZM1374.47 11.4375H370.688C359.58 11.4375 350.576 20.4437 350.576 31.5525V740.258C350.576 751.366 359.58 760.37 370.688 760.37H1374.47C1385.57 760.37 1394.58 751.366 1394.58 740.258V31.5525C1394.58 20.4437 1385.57 11.4375 1374.47 11.4375Z" fill="#090E2B"/>
<path fill-rule="evenodd" clip-rule="evenodd" d="M961.754 377.5H542.36C505.199 377.5 475.076 347.377 475.076 310.216C475.076 273.061 505.199 242.938 542.36 242.938H961.754C998.912 242.938 1029.03 273.061 1029.03 310.216C1029.03 347.377 998.912 377.5 961.754 377.5Z" fill="#FFB201"/>
<path fill-rule="evenodd" clip-rule="evenodd" d="M1198.96 375.648C1161.8 375.648 1131.67 345.525 1131.67 308.364C1131.67 271.209 1161.8 241.086 1198.96 241.086C1236.12 241.086 1266.24 271.209 1266.24 308.364C1266.24 345.525 1236.12 375.648 1198.96 375.648Z" fill="#C7D2F2"/>
<path d="M1333.97 60.3849C1335.73 58.6276 1338.57 58.6276 1340.33 60.3849C1342.03 62.0874 1342.09 64.8145 1340.49 66.581L1340.33 66.7489L1298.33 108.748C1296.57 110.506 1293.73 110.506 1291.97 108.748C1290.27 107.046 1290.21 104.319 1291.81 102.552L1291.97 102.384L1333.97 60.3849Z" fill="black"/>
<path d="M1291.97 60.3849C1293.67 58.6825 1296.4 58.6293 1298.16 60.2253L1298.33 60.3849L1340.33 102.384C1342.09 104.142 1342.09 106.991 1340.33 108.748C1338.63 110.451 1335.9 110.504 1334.14 108.908L1333.97 108.748L1291.97 66.7489C1290.21 64.9915 1290.21 62.1423 1291.97 60.3849Z" fill="black"/>
<path d="M1071.82 462.938C1081.76 462.938 1089.82 470.997 1089.82 480.938C1089.82 490.769 1081.94 498.758 1072.15 498.935L1071.82 498.938H493.076C483.135 498.938 475.076 490.88 475.076 480.938C475.076 471.108 482.957 463.117 492.745 462.94L493.076 462.938H1071.82Z" fill="#C7D2F2"/>
<path d="M823.628 569.938C833.569 569.938 841.628 577.997 841.628 587.938C841.628 597.769 833.747 605.758 823.959 605.935L823.628 605.938H493.076C483.135 605.938 475.076 597.88 475.076 587.938C475.076 578.108 482.957 570.117 492.745 569.94L493.076 569.938H823.628Z" fill="#C7D2F2"/>
<path d="M1855.58 584.437H1080.58C1045.23 584.437 1016.58 613.091 1016.58 648.437V1184.44C1016.58 1219.78 1045.23 1248.44 1080.58 1248.44H1855.58C1890.92 1248.44 1919.58 1219.78 1919.58 1184.44V648.437C1919.58 613.091 1890.92 584.437 1855.58 584.437Z" fill="#090E2B"/>
<path d="M1810.58 551.437H1035.58C1000.23 551.437 971.576 580.091 971.576 615.437V1151.44C971.576 1186.78 1000.23 1215.44 1035.58 1215.44H1810.58C1845.92 1215.44 1874.58 1186.78 1874.58 1151.44V615.437C1874.58 580.091 1845.92 551.437 1810.58 551.437Z" fill="white"/>
<path fill-rule="evenodd" clip-rule="evenodd" d="M1035.58 548.437H1810.58C1847.58 548.437 1877.58 578.434 1877.58 615.437V1151.44C1877.58 1188.44 1847.58 1218.44 1810.58 1218.44H1035.58C998.573 1218.44 968.576 1188.44 968.576 1151.44V615.437C968.576 578.434 998.573 548.437 1035.58 548.437ZM1810.58 554.437H1035.58C1001.89 554.437 974.576 581.748 974.576 615.437V1151.44C974.576 1185.13 1001.89 1212.44 1035.58 1212.44H1810.58C1844.26 1212.44 1871.58 1185.13 1871.58 1151.44V615.437C1871.58 581.748 1844.26 554.437 1810.58 554.437Z" fill="#090E2B"/>
<path d="M1642.23 744.499C1693.58 731.888 1741.22 789.369 1786.97 914.375C1788.11 917.487 1786.51 920.933 1783.4 922.072C1780.28 923.21 1776.84 921.611 1775.7 918.499C1731.94 798.923 1687.8 745.664 1645.09 756.153C1621.61 761.92 1602.12 776.754 1584.08 800.954L1582.83 802.637C1570.08 820.017 1560.61 837.346 1542.33 874.754L1536.09 887.517C1517.46 925.53 1507.77 942.948 1493.87 961.395C1473.99 987.785 1451.89 1004.16 1424.81 1010.17C1405.5 1014.45 1389.75 1006.67 1376.47 988.742L1376.07 988.196C1366.41 974.967 1359.48 959.928 1347.27 928.58L1343.49 918.849C1331.84 888.979 1325 874.103 1315.91 861.069C1304.43 844.62 1292.06 836.899 1276.9 837.816C1221.16 841.185 1161.12 904.009 1097.91 1027.06C1096.4 1030.01 1092.78 1031.17 1089.84 1029.65C1086.89 1028.14 1085.73 1024.52 1087.24 1021.57C1152.24 895.049 1214.84 829.546 1276.18 825.837C1295.87 824.647 1311.77 834.432 1325.34 853.619L1325.75 854.204C1335.36 867.99 1342.37 883.068 1353.92 912.583L1359.15 926.021C1370.41 954.834 1376.98 968.984 1385.49 980.753L1385.76 981.12C1396.55 995.907 1407.91 1001.63 1422.21 998.451C1446.18 993.129 1465.99 978.458 1484.28 954.175L1485.55 952.486C1498.34 935.223 1507.84 917.938 1525.96 880.938L1532.17 868.198C1550.78 830.19 1560.42 812.708 1574.02 794.367L1574.46 793.781C1594.04 767.522 1615.73 751.006 1642.23 744.499Z" fill="#FFB201"/>
<path d="M1750.04 756.8C1750.87 753.594 1754.15 751.675 1757.36 752.513C1760.57 753.352 1762.48 756.631 1761.65 759.836C1724.44 902.065 1676.63 968.844 1616.45 957.33C1590.39 952.345 1572.19 953.267 1558.66 959.236C1548.24 963.832 1540.96 970.705 1530.74 984.318L1529.55 985.905L1523.46 994.224C1520.84 997.793 1518.73 1000.58 1516.58 1003.29C1507.58 1014.63 1498.7 1023.32 1487.59 1030.83C1474.15 1039.91 1458.07 1046.67 1438.25 1051.06C1420 1055.12 1404.34 1053.05 1389.87 1045.52C1379.11 1039.91 1370.56 1032.67 1357.14 1018.96L1350.86 1012.49C1337.34 998.547 1329.5 991.562 1319.66 985.666C1307.14 978.171 1293.82 974.732 1278 975.689C1220.88 979.142 1160.34 1007.35 1096.41 1060.53C1093.87 1062.65 1090.08 1062.31 1087.96 1059.76C1085.84 1057.21 1086.19 1053.43 1088.74 1051.31C1154.48 996.612 1217.32 967.335 1277.28 963.71C1295.57 962.605 1311.28 966.661 1325.82 975.371L1326.8 975.964C1337.01 982.218 1345.17 989.455 1358.22 1002.84L1364.51 1009.33L1365.67 1010.52C1378.27 1023.4 1386.07 1030.01 1395.42 1034.88C1407.38 1041.1 1420.15 1042.79 1435.65 1039.35C1454.03 1035.27 1468.71 1029.11 1480.87 1020.89C1490.86 1014.14 1498.88 1006.28 1507.18 995.833L1508.26 994.453C1509.71 992.593 1511.2 990.625 1512.91 988.307L1519.71 979.031L1520.15 978.444C1532.01 962.45 1540.72 954.033 1553.81 948.257C1569.85 941.181 1590.45 940.138 1618.7 945.544C1669.94 955.347 1714.31 893.38 1750.04 756.8Z" fill="#009BA0"/>
<path d="M1658.08 774.437C1672.16 774.437 1683.58 763.021 1683.58 748.937C1683.58 734.854 1672.16 723.437 1658.08 723.437C1643.99 723.437 1632.58 734.854 1632.58 748.937C1632.58 763.021 1643.99 774.437 1658.08 774.437Z" fill="#FF0057"/>
<path d="M1770.58 1094.44H1061.58V1096.44H1770.58V1094.44Z" fill="#C7D2F2"/>
<path fill-rule="evenodd" clip-rule="evenodd" d="M584.191 1767.94C584.191 1767.94 573.934 1840.39 569.748 1871.34C565.526 1902.56 640.625 1872.17 640.625 1872.17C640.625 1872.17 627.086 1852.88 626.881 1847.6C626.677 1842.31 649.795 1780.44 649.795 1780.44L584.191 1767.94Z" fill="#FF8282"/>
<path fill-rule="evenodd" clip-rule="evenodd" d="M734.612 1368.44C771.474 1385.29 808.73 1427.83 776.165 1507.57C743.601 1587.31 666.97 1780.31 654.926 1788.99C642.882 1797.68 579.361 1780.44 579.361 1780.44C579.361 1780.44 586.309 1699.38 600.111 1619.68C610.218 1561.32 631.529 1518.76 631.529 1518.76C631.529 1518.76 460.117 1543.22 417.559 1514.51C361.701 1476.83 403.057 1375.3 435.162 1362.73C476.435 1346.57 664.431 1336.36 734.612 1368.44Z" fill="#F67A49"/>
<path fill-rule="evenodd" clip-rule="evenodd" d="M732.681 1905.99C727.295 1889.31 688.238 1878.29 660.036 1869.95C650.543 1867.14 637.279 1853.27 631.122 1853.44C622.158 1853.68 630.943 1872.34 600.939 1870.71C592.995 1870.28 592.428 1861.92 575.168 1860.02C572.363 1859.71 568.075 1859.17 564.372 1865.83C562.308 1869.55 553.858 1903.1 562.154 1916.78C620.24 1918.28 679.989 1916.8 731.596 1916.32C736.636 1916.27 734.058 1910.26 732.681 1905.99Z" fill="#FF0057"/>
<path fill-rule="evenodd" clip-rule="evenodd" d="M828.547 1780.44C828.547 1780.44 839.107 1834.95 846.172 1843.82C853.239 1852.68 889.905 1862.66 891.551 1868.14C893.195 1873.61 813.397 1886.44 813.397 1886.44L764.576 1785.14L828.547 1780.44Z" fill="#FF8282"/>
<path fill-rule="evenodd" clip-rule="evenodd" d="M963.681 1902.99C958.295 1886.31 919.238 1875.29 891.036 1866.95C881.543 1864.14 868.279 1850.27 862.122 1850.44C853.158 1850.68 861.943 1869.34 831.939 1867.71C823.996 1867.28 823.429 1858.92 806.168 1857.02C803.363 1856.71 799.075 1856.17 795.372 1862.83C793.308 1866.55 784.858 1900.1 793.154 1913.78C851.24 1915.28 910.989 1913.8 962.596 1913.32C967.636 1913.27 965.058 1907.26 963.681 1902.99Z" fill="#FF0057"/>
<path fill-rule="evenodd" clip-rule="evenodd" d="M896.281 1878.87C899.968 1871.44 901.581 1870.15 900.009 1868.98C896.249 1866.19 877.147 1874.82 875.646 1879.96C874.521 1883.81 887.24 1872.67 897.397 1871C893.235 1874.8 889.355 1886.46 893.45 1884.13C913.403 1872.82 916.55 1875.44 916.575 1875.02C916.693 1873.02 909.142 1871.4 896.281 1878.87Z" fill="#FFB201"/>
<path fill-rule="evenodd" clip-rule="evenodd" d="M353.704 1445.44C365.668 1507.39 420.868 1529.65 468.767 1527.8C541.933 1524.97 616.517 1492.48 641.729 1481.62C639.508 1497.6 651.382 1588.46 671.206 1630.51C691.029 1672.56 755.586 1799.06 755.586 1799.06C755.586 1799.06 828.428 1799.49 831.543 1781.81C833.592 1770.18 765.208 1445.29 742.586 1389.03C729.596 1356.73 687.553 1342.79 601.078 1335.44C514.224 1328.05 387.608 1341.67 387.608 1341.67C387.608 1341.67 341.739 1383.48 353.704 1445.44Z" fill="#FFB201"/>
<path fill-rule="evenodd" clip-rule="evenodd" d="M665.281 1882.87C668.968 1875.44 670.581 1874.15 669.008 1872.98C665.248 1870.19 646.147 1878.82 644.646 1883.96C643.521 1887.81 656.24 1876.67 666.397 1875C662.235 1878.8 658.354 1890.46 662.45 1888.13C682.403 1876.82 685.55 1879.44 685.575 1879.02C685.693 1877.02 678.142 1875.4 665.281 1882.87Z" fill="#FFB201"/>
<path fill-rule="evenodd" clip-rule="evenodd" d="M720.407 1922.83L580.592 1925.3C571.238 1925.67 557.246 1922.45 555.893 1914.68C554.882 1908.88 557.13 1896.23 557.596 1895.39C560.853 1889.53 588.608 1894.48 596.693 1914.27C647.707 1918.09 734.584 1914.35 734.584 1914.35C734.584 1914.35 735.888 1922.03 720.407 1922.83Z" fill="#090E2B"/>
<path fill-rule="evenodd" clip-rule="evenodd" d="M951.297 1919.22L811.482 1921.69C802.129 1922.06 788.136 1918.85 786.783 1911.08C785.773 1905.27 788.02 1892.63 788.487 1891.79C791.743 1885.93 819.498 1890.87 827.583 1910.66C878.597 1914.48 965.475 1910.74 965.475 1910.74C965.475 1910.74 966.778 1918.43 951.297 1919.22Z" fill="#090E2B"/>
<path fill-rule="evenodd" clip-rule="evenodd" d="M877.124 893.895C877.124 893.895 879.618 888.371 881.739 884.584C884.538 879.584 882.3 873.785 876.75 881.424C875.252 883.485 846.17 915.833 839.084 921.817C785.697 966.89 721.699 1019.03 706.789 1026.1C685.929 1035.98 650.176 1041.45 632.037 1057.57C623.23 1065.4 657.108 1130 657.108 1130C657.108 1130 712.71 1104.62 730.463 1093.49C752.554 1079.64 818.508 997.737 856.808 945.521C865.322 933.915 881.306 932.093 886.992 915.629C890.492 905.497 877.124 893.895 877.124 893.895Z" fill="#FF8282"/>
<path fill-rule="evenodd" clip-rule="evenodd" d="M501.804 1021.45C501.804 1021.45 498.694 1044.7 501.162 1049.31C502.366 1051.56 510.661 1059.6 542.1 1063.95C545.6 1067.64 528.87 1104.77 522.341 1110.94C515.812 1117.1 494.85 1120.39 454.98 1088.75C415.111 1057.1 420.865 1057.51 420.865 1057.51C420.865 1057.51 443.207 1057.02 448.404 1048.88C450.226 1046.02 452.244 1002.4 447.831 989.242C443.417 976.079 501.804 1021.45 501.804 1021.45Z" fill="#FF8282"/>
<path fill-rule="evenodd" clip-rule="evenodd" d="M326.679 1124.99C326.679 1124.99 246.839 1202.9 226.949 1222.8C211.806 1237.95 133.994 1312.57 85.4977 1356.99C70.2967 1370.92 48.2038 1378.17 32.9948 1386.49C26.0068 1390.31 0.693741 1403.69 2.68674 1408.24C4.41174 1412.17 35.3948 1407.66 43.9388 1411.1C35.8748 1418.96 37.4418 1426.36 51.2988 1422.01C70.4408 1416.01 79.1698 1398.03 94.6188 1387.32C113.444 1374.28 249.992 1303.58 286.286 1268.09C312.91 1242.06 376.576 1206.31 376.576 1206.31L326.679 1124.99Z" fill="#FF8282"/>
<path fill-rule="evenodd" clip-rule="evenodd" d="M351.245 1229.75C366.72 1217.28 396.909 1196.05 396.909 1196.05C396.909 1196.05 334.117 1372.81 347.077 1393.38C350.596 1398.97 381.091 1376.84 425.862 1369.95C499.447 1358.63 582.596 1351.8 574.651 1328.6C552.014 1262.51 572.543 1169.07 572.543 1169.07L660.916 1138.03C671.102 1119.04 681.591 1040.55 668.365 1035.94C664.873 1034.73 567.528 1058.68 567.528 1058.68C567.528 1058.68 528.653 1056.05 526.259 1057.35C523.866 1058.64 518.29 1093.93 510.479 1095.57C488.66 1100.16 421.284 1054.02 421.284 1054.02C421.284 1054.02 388.212 1059.32 370.236 1074.86C357.913 1085.52 272.576 1170.15 272.576 1170.15C272.576 1170.15 335.769 1242.21 351.245 1229.75Z" fill="#3615F6"/>
<path fill-rule="evenodd" clip-rule="evenodd" d="M396.576 1196.84C398.329 1193.33 411.368 1181.09 419.354 1174.43C425.975 1168.91 429.123 1167.23 419.477 1177.54C415.992 1180.69 399.114 1199.33 396.576 1196.84Z" fill="black"/>
<path fill-rule="evenodd" clip-rule="evenodd" d="M574.365 1140.02C574.642 1140.94 575.009 1159 572.832 1168.27C572.652 1169.04 572.547 1169.94 572.316 1170.03C570.974 1170.54 571.753 1154.79 572.35 1147.04C573.087 1137.46 573.896 1138.44 574.365 1140.02Z" fill="black"/>
<path fill-rule="evenodd" clip-rule="evenodd" d="M535.889 1055.27L534.585 1043.47L538.605 1055.27C538.605 1055.27 607.653 1053.01 608.771 1040.45C609.889 1027.9 578.186 971.725 578.186 935.991C578.854 945.369 596.468 990.302 601.793 994.251C588.092 971.136 575.367 904.502 574.418 899.51C570.494 878.884 569.281 878.76 564.347 872.31C556.589 862.171 514.949 840.255 501.956 863.313C488.452 887.276 506.109 917.85 501.956 948.458C494.947 1000.1 498.875 1043.47 507.406 1057.13L535.889 1055.27Z" fill="#090E2B"/>
<path fill-rule="evenodd" clip-rule="evenodd" d="M566.415 872.072C566.415 872.072 573.64 952.019 573.64 974.38C573.64 996.74 572.313 1023.19 548.684 1030.85C523.408 1039.04 472.932 1024.61 461.722 1021.38C413.499 1007.46 443.601 909.462 450.309 877.04C457.017 844.617 566.415 872.072 566.415 872.072Z" fill="#FF8282"/>
<path fill-rule="evenodd" clip-rule="evenodd" d="M461.844 923.093C461.844 923.093 454.018 972.583 461.844 998.297C469.67 1024.01 471.252 1054.98 466.548 1061.77C461.844 1068.56 444.924 1063.35 432.171 1063.14C420.082 1062.95 416.151 1063.85 414.005 1062.95C410.336 1057.3 410.414 1047.49 410.414 1047.49V1063.14C410.414 1063.14 366.105 1059.77 366.105 1036.71C366.105 1027.47 377.194 990.653 388.743 951.821C401.741 908.116 417.457 861.858 459.548 849.498C499.941 837.636 545.792 841.658 565.309 867.426C581.374 888.636 571.086 916.556 571.086 916.556C571.086 916.556 562.049 914.021 540.683 914.021C525.956 914.021 496.777 916.556 496.777 916.556L492.945 891.49V917.627L461.844 923.093Z" fill="#090E2B"/>
<path fill-rule="evenodd" clip-rule="evenodd" d="M478.233 1025.73C484.642 1027.38 490.024 1028.23 495.992 1029.52C496.844 1029.7 498.345 1029.99 498.545 1030.16C499.761 1031.17 497.544 1032.29 493.076 1031.43C486.533 1030.16 476.064 1025.17 478.233 1025.73Z" fill="black"/>
<path fill-rule="evenodd" clip-rule="evenodd" d="M550.493 993.416C534.864 992.788 523.916 992.348 513.395 991.926C510.125 991.794 507.249 997.512 512.87 1005.01C520.835 1015.63 541.467 1019.31 549.857 1006.49C554.131 999.962 553.886 993.553 550.493 993.416Z" fill="white"/>
<path fill-rule="evenodd" clip-rule="evenodd" d="M539.363 963.146C543.404 966.921 553.537 982.084 544.404 984.277C542.518 984.729 533.897 984.949 535.168 983.075C536.181 981.581 542.553 982.462 543.474 979.623C544.684 975.893 540.288 968.59 537.548 963.581C537.077 962.718 538.728 962.405 539.363 963.146Z" fill="#090E2B"/>
<path fill-rule="evenodd" clip-rule="evenodd" d="M557.716 956.91C559.292 955.887 560.578 954.383 561.388 951.317C562.018 948.931 560.693 948.62 560.022 949.315C559.755 949.591 559.466 949.956 559.143 950.363C557.976 951.838 556.373 953.862 553.814 954.207C552.114 954.438 549.589 953.963 547.003 952.155C545.372 951.017 543.93 950.996 544.847 953.264C546.072 956.297 553.122 959.891 557.716 956.91ZM502.328 962.236C510.282 966.478 520.149 962.121 519.931 954.453C519.861 951.989 518.33 951.951 517.459 953.628C515.23 957.924 508.45 962.017 500.443 956.669C500.436 956.665 500.429 956.66 500.421 956.655C499.797 956.238 498.023 955.054 497.334 955.801C496.246 956.983 498.231 960.052 502.328 962.236Z" fill="#090E2B"/>
<path fill-rule="evenodd" clip-rule="evenodd" d="M563.468 926.498C554.476 918.87 539.483 925.274 538.054 933.853C537.498 937.197 541.305 937.868 543.102 935.96C549.734 928.923 558.488 930.625 561.913 931.292C562.623 931.43 563.104 931.523 563.29 931.486C566.327 930.875 565.244 928.005 563.468 926.498ZM484.556 938.381C495.262 930.043 505.845 932.287 517.312 939.078C521.513 940.394 522.494 934.935 519.37 931.52C512.557 924.071 498.363 922.691 488.185 927.522C485.078 928.996 481.247 933.112 480.285 935.407C478.936 938.628 480.708 941.378 484.556 938.381Z" fill="#090E2B"/>
</g>
<defs>
<clipPath id="clip0_2_95">
<rect width="2103.84" height="1928.44" fill="white"/>
</clipPath>
</defs>
</svg>
