<svg width="2054" height="1964" viewBox="0 0 2054 2054" fill="none" xmlns="http://www.w3.org/2000/svg">
<path opacity="0.75" fill-rule="evenodd" clip-rule="evenodd" d="M141.696 931.744C252.893 548.2 475.053 699.138 502.43 564.164C529.807 429.191 601.261 0 890.858 0C1180.46 0 1137.59 262.45 1359.16 146.52C1482.74 81.86 1618.22 100.021 1669.61 299.017C1705.71 438.783 1707.14 564.164 1885.56 741.056C2063.97 917.948 2205.68 1707.18 1703.19 1834.37C1200.71 1961.56 769.536 1951.26 502.43 1816.98C235.325 1682.7 30.4991 1315.29 141.696 931.744Z" fill="#EDF8FF"/>
<path fill-rule="evenodd" clip-rule="evenodd" d="M658.377 1924.13C655.799 1923.77 652.919 1924.41 650.341 1924.05H98.9809C99.2339 1903.22 111.198 1873.04 129.51 1862.84C147.811 1852.66 171.57 1852.98 189.581 1863.63C181.461 1820.9 175.581 1776.25 187.425 1734.36C199.244 1692.48 232.917 1653.92 276.41 1648.75C317.192 1643.92 356.794 1669.37 380.275 1702.83C403.757 1736.29 414.286 1776.8 424.371 1816.33C423.226 1797.63 432.563 1778.64 448.093 1768.02C463.635 1757.39 484.827 1755.53 502.007 1763.26C521.187 1771.88 533.946 1790.98 539.862 1811.05C545.765 1831.14 545.753 1852.39 545.693 1873.3C557.982 1845.64 593.511 1830.74 622.028 1841.3C650.558 1851.86 667.316 1895.24 658.377 1924.13Z" fill="#F67A49"/>
<path fill-rule="evenodd" clip-rule="evenodd" d="M541.583 1924.14C540.079 1923.92 538.406 1924.32 536.902 1924.09H215.772C215.917 1912.02 222.897 1894.52 233.549 1888.62C244.212 1882.72 258.041 1882.9 268.536 1889.08C263.806 1864.31 260.388 1838.41 267.272 1814.13C274.168 1789.85 293.786 1767.5 319.12 1764.51C342.866 1761.7 365.926 1776.45 379.611 1795.85C393.283 1815.25 399.409 1838.72 405.294 1861.64C404.632 1850.8 410.06 1839.8 419.111 1833.65C428.161 1827.49 440.51 1826.4 450.511 1830.88C461.68 1835.89 469.118 1846.95 472.56 1858.58C475.99 1870.23 475.99 1882.55 475.954 1894.66C483.103 1878.64 503.804 1870 520.413 1876.13C537.034 1882.24 546.795 1907.39 541.583 1924.14Z" fill="#FFB201"/>
<path d="M1240.22 1921.16C1242.16 1921.16 1243.74 1922.73 1243.74 1924.66C1243.74 1926.53 1242.26 1928.06 1240.41 1928.16L1240.22 1928.16H3.62544C1.67926 1928.16 0.101562 1926.6 0.101562 1924.66C0.101562 1922.79 1.57583 1921.27 3.4321 1921.17L3.62544 1921.16H1240.22Z" fill="#090E2B"/>
<path d="M2049.7 1921.16C2051.65 1921.16 2053.23 1922.73 2053.23 1924.66C2053.23 1926.53 2051.75 1928.06 2049.89 1928.16L2049.7 1928.16H1343.92C1341.97 1928.16 1340.39 1926.6 1340.39 1924.66C1340.39 1922.79 1341.87 1921.27 1343.72 1921.17L1343.92 1921.16H2049.7Z" fill="#090E2B"/>
<path fill-rule="evenodd" clip-rule="evenodd" d="M1136.44 1924.02H382.6C323.271 1924.02 275.175 1876.25 275.175 1817.32V281.859C275.175 222.932 323.271 175.162 382.6 175.162H1136.44C1195.77 175.162 1243.87 222.932 1243.87 281.859V1817.32C1243.87 1876.25 1195.77 1924.02 1136.44 1924.02Z" fill="#090E2B"/>
<path fill-rule="evenodd" clip-rule="evenodd" d="M1108.16 247.162H994.081V276.423C994.081 316.316 961.52 348.658 921.352 348.658H597.691C557.523 348.658 524.96 316.316 524.96 276.421V247.162H410.886C375.969 247.162 347.664 275.273 347.664 309.953V1789.23C347.664 1823.91 375.969 1852.02 410.886 1852.02H1108.16C1143.07 1852.02 1171.38 1823.91 1171.38 1789.23V309.953C1171.38 275.273 1143.07 247.162 1108.16 247.162Z" fill="white"/>
<path fill-rule="evenodd" clip-rule="evenodd" d="M557.981 1492.92H467.237C445.586 1492.92 428.036 1475.49 428.036 1453.99V1363.86C428.036 1342.36 445.586 1324.92 467.237 1324.92H557.981C579.632 1324.92 597.182 1342.36 597.182 1363.86V1453.99C597.182 1475.49 579.632 1492.92 557.981 1492.92Z" stroke="#C7D2F2" stroke-width="5" stroke-linecap="round" stroke-linejoin="round" stroke-dasharray="10 12"/>
<path fill-rule="evenodd" clip-rule="evenodd" d="M558.158 1493.16H467.413C445.762 1493.16 428.212 1475.73 428.212 1454.23V1364.1C428.212 1342.59 445.762 1325.16 467.413 1325.16H558.158C579.808 1325.16 597.358 1342.59 597.358 1364.1V1454.23C597.358 1475.73 579.808 1493.16 558.158 1493.16Z" fill="#A191FF"/>
<path fill-rule="evenodd" clip-rule="evenodd" d="M1062.25 977.839H467.739C445.908 977.839 428.212 960.408 428.212 938.904V620.098C428.212 598.594 445.908 581.162 467.739 581.162H1062.25C1084.08 581.162 1101.78 598.594 1101.78 620.098V938.904C1101.78 960.408 1084.08 977.839 1062.25 977.839Z" fill="#FFB201"/>
<path fill-rule="evenodd" clip-rule="evenodd" d="M558.158 1244.16H467.413C445.762 1244.16 428.212 1226.73 428.212 1205.23V1115.1C428.212 1093.59 445.762 1076.16 467.413 1076.16H558.158C579.808 1076.16 597.358 1093.59 597.358 1115.1V1205.23C597.358 1226.73 579.808 1244.16 558.158 1244.16Z" fill="#FF0057"/>
<path d="M1092.72 1076.16H664.815C659.811 1076.16 655.754 1080.19 655.754 1085.16C655.754 1090.13 659.811 1094.16 664.815 1094.16H1092.72C1097.72 1094.16 1101.78 1090.13 1101.78 1085.16C1101.78 1080.19 1097.72 1076.16 1092.72 1076.16Z" fill="#E7EAFD"/>
<path d="M1092.72 1337.16H664.815C659.811 1337.16 655.754 1341.19 655.754 1346.16C655.754 1351.13 659.811 1355.16 664.815 1355.16H1092.72C1097.72 1355.16 1101.78 1351.13 1101.78 1346.16C1101.78 1341.19 1097.72 1337.16 1092.72 1337.16Z" fill="#E7EAFD"/>
<path d="M980.958 1140.16H664.815C659.811 1140.16 655.754 1144.19 655.754 1149.16C655.754 1154.13 659.811 1158.16 664.815 1158.16H980.958C985.962 1158.16 990.019 1154.13 990.019 1149.16C990.019 1144.19 985.962 1140.16 980.958 1140.16Z" fill="#E7EAFD"/>
<path d="M980.958 1401.16H664.815C659.811 1401.16 655.754 1405.19 655.754 1410.16C655.754 1415.13 659.811 1419.16 664.815 1419.16H980.958C985.962 1419.16 990.019 1415.13 990.019 1410.16C990.019 1405.19 985.962 1401.16 980.958 1401.16Z" fill="#E7EAFD"/>
<path d="M905.446 1204.16H664.815C659.811 1204.16 655.754 1208.19 655.754 1213.16C655.754 1218.13 659.811 1222.16 664.815 1222.16H905.446C910.451 1222.16 914.508 1218.13 914.508 1213.16C914.508 1208.19 910.451 1204.16 905.446 1204.16Z" fill="#E7EAFD"/>
<path d="M905.446 1465.16H664.815C659.811 1465.16 655.754 1469.19 655.754 1474.16C655.754 1479.13 659.811 1483.16 664.815 1483.16H905.446C910.451 1483.16 914.508 1479.13 914.508 1474.16C914.508 1469.19 910.451 1465.16 905.446 1465.16Z" fill="#E7EAFD"/>
<path fill-rule="evenodd" clip-rule="evenodd" d="M1238.82 1782.16C1238.82 1782.16 1215.13 1853.69 1211.37 1859.27C1206.8 1866.04 1188.45 1867.43 1188.45 1867.43C1188.45 1867.43 1189.63 1893.4 1207.83 1900.14C1220.51 1904.84 1259.61 1918 1255.37 1907.9C1251.13 1897.8 1326.3 1817.75 1326.3 1817.75L1238.82 1782.16Z" fill="#757EFF"/>
<path fill-rule="evenodd" clip-rule="evenodd" d="M1072.69 1862.95C1086.63 1848.98 1129.93 1859.49 1162.82 1861.85C1187.08 1863.6 1197.09 1859.43 1203.25 1862.52C1208.99 1865.41 1190.71 1885.86 1225.26 1896.41C1233.78 1899.01 1244.47 1900.78 1259.01 1897.94C1261.37 1897.48 1261.09 1899.32 1261.37 1907.86C1261.52 1912.62 1254.59 1950.46 1239.29 1959.96C1213.82 1947.88 1195.82 1933.63 1169.84 1925.03C1122.75 1909.43 1100.59 1894.82 1069.22 1874.86C1064.46 1871.84 1069.13 1866.52 1072.69 1862.95Z" fill="#071777"/>
<path fill-rule="evenodd" clip-rule="evenodd" d="M1076.45 1885.21C1138.43 1928.41 1180.22 1928.91 1194.64 1942.77C1200.64 1948.53 1238.46 1968.75 1243.78 1961.7C1247.75 1956.44 1249.63 1949.36 1248.59 1949.08C1243.46 1947.67 1235.21 1948.3 1205.44 1934.97C1168.12 1917.4 1121.02 1907.9 1075.91 1875.36C1070.73 1871.61 1068.99 1867.18 1068.99 1867.18C1068.99 1867.18 1065.64 1869.5 1065.77 1872.87C1065.91 1876.23 1069.32 1880.24 1076.45 1885.21Z" fill="#FFB201"/>
<path fill-rule="evenodd" clip-rule="evenodd" d="M1160.76 1873.04C1164.51 1872.38 1162.11 1863.13 1158.92 1860.48C1154.9 1857.16 1148.39 1859.79 1153.24 1861.31C1158.87 1863.08 1157.14 1873.67 1160.76 1873.04Z" fill="#FFB201"/>
<path fill-rule="evenodd" clip-rule="evenodd" d="M1142.09 1870.97C1148.04 1867.56 1142.71 1856.63 1137.17 1856.63C1134.5 1856.63 1133.35 1858.98 1135.58 1858.88C1144.16 1862.15 1137.97 1870.63 1142.09 1870.97Z" fill="#FFB201"/>
<path fill-rule="evenodd" clip-rule="evenodd" d="M1944.1 1661.04C1944.1 1661.04 1884.66 1621.65 1866.15 1609.5C1846.79 1596.8 1825.1 1678.51 1825.1 1678.51C1825.1 1678.51 1905.86 1697.46 1915.36 1702.96C1919.92 1705.6 1926.69 1716.64 1926.69 1716.64C1926.69 1716.64 1953.79 1706.56 1955.06 1688.51C1956.33 1670.47 1944.1 1661.04 1944.1 1661.04Z" fill="#757EFF"/>
<path fill-rule="evenodd" clip-rule="evenodd" d="M1980.08 1653.75C1984.98 1654.2 1987.62 1651.66 1993.47 1665.38C1999.33 1679.1 2005.71 1704.4 2007.54 1708.53C2015.15 1725.7 2032.72 1745.37 2036.45 1762.26C2051.4 1829.87 2021.4 1840.32 2017.54 1838.07C2005.44 1831.03 1996.38 1809.08 1986.62 1798.7C1967.8 1778.68 1920.53 1716.15 1919.47 1709.28C1935.62 1704.68 1942.48 1693.29 1943.4 1682.78C1944.47 1670.47 1940.2 1662.65 1941.8 1659.31C1943.4 1655.97 1966.17 1652.47 1980.08 1653.75Z" fill="#071777"/>
<path fill-rule="evenodd" clip-rule="evenodd" d="M1953.34 1758.99C1954.23 1759 1954.95 1758.22 1954.86 1757.34C1954.38 1744.47 1973.12 1744.46 1972.5 1740.76C1971.82 1737.28 1950.32 1741.56 1951.62 1756.91C1951.69 1757.7 1952.56 1758.99 1953.34 1758.99Z" fill="#FFB201"/>
<path fill-rule="evenodd" clip-rule="evenodd" d="M1940.85 1742.16C1941.56 1742.16 1942.19 1741.67 1942.34 1740.96C1944.99 1729.82 1960.63 1728.35 1959.96 1724.71C1958.96 1721.47 1939.91 1728.21 1939.35 1740.34C1939.31 1741.29 1939.9 1742.18 1940.85 1742.16Z" fill="#FFB201"/>
<path fill-rule="evenodd" clip-rule="evenodd" d="M1991.2 1694.64C1988.53 1680.83 1981.76 1657.15 1980.08 1653.75C1984.98 1654.2 1991.89 1649.23 1997.75 1662.95C2003.6 1676.68 2005.71 1704.4 2007.54 1708.53C2015.15 1725.7 2035.82 1748.17 2040.63 1764.79C2045.15 1780.44 2048.61 1810.41 2039.21 1828.97C2032.9 1841.43 2021.4 1840.32 2017.54 1838.07C2016.04 1837.2 2013.96 1835.66 2012.54 1834.38C2013.78 1834.97 2014.78 1835.4 2016.39 1835.86C2025.16 1838.34 2033.83 1826.47 2036.34 1804.95C2038.84 1783.43 2034.89 1762.01 2022.16 1743.67C2014.85 1733.14 1993.82 1708.21 1991.2 1694.64Z" fill="#FFB201"/>
<path fill-rule="evenodd" clip-rule="evenodd" d="M1412.75 1304.52C1398.29 1193.41 1406.16 1055.16 1406.16 1055.16C1406.16 1055.16 1474.47 1055.16 1611.1 1055.16C1611.1 1055.16 1646.59 1102.72 1638.59 1179.96C1632.66 1237.13 1603.28 1295.18 1572.62 1350.79C1576.52 1369.11 1580.89 1382.98 1585.79 1389.96C1638.75 1465.41 1814.67 1525.21 1882.92 1615.1C1894.05 1629.76 1821.44 1721.69 1809.02 1745.58C1804.13 1754.99 1570.45 1611.66 1488.98 1536.91C1452.49 1659.61 1412.04 1841.41 1369.05 1850.86C1347.69 1855.56 1246.25 1804.33 1227.64 1792.41C1226.73 1780.14 1289.1 1625.88 1357.22 1467.89C1381.1 1412.48 1399.1 1355.1 1412.75 1304.52Z" fill="#001386"/>
<path fill-rule="evenodd" clip-rule="evenodd" d="M1570.67 1353.3C1536.71 1410.42 1507.07 1466.81 1488.99 1533.47C1487.86 1537.63 1488.64 1538.75 1488.96 1537.89C1504.93 1495.02 1522.75 1456.63 1542.16 1416.66C1552.51 1395.75 1560.42 1372.76 1571.88 1352.41C1572.19 1351.92 1571.59 1352.13 1570.67 1353.3Z" fill="#090E2B"/>
<path fill-rule="evenodd" clip-rule="evenodd" d="M1467.06 1102.37C1455.68 1129 1443.35 1179.39 1435.6 1207.56C1427.54 1238.67 1419.59 1272.6 1411.91 1303.92C1411.73 1304.59 1412.3 1303.75 1412.49 1303.02C1429.41 1244.9 1465.59 1111.01 1466.41 1108.06C1466.87 1106.72 1467.61 1101 1467.06 1102.37Z" fill="#090E2B"/>
<path fill-rule="evenodd" clip-rule="evenodd" d="M1102.23 571.31C1102.23 571.31 1099.72 565.791 1097.59 562.008C1094.77 557.013 1097.02 551.221 1102.61 558.851C1104.12 560.91 1133.4 593.225 1140.53 599.201C1194.28 644.228 1258.72 696.311 1273.73 703.372C1294.73 713.25 1330.73 718.707 1348.99 734.812C1357.86 742.632 1323.75 807.162 1323.75 807.162C1323.75 807.162 1267.77 781.812 1249.89 770.695C1227.65 756.859 1161.25 675.041 1122.69 622.881C1114.11 611.287 1098.02 609.466 1092.3 593.02C1088.77 582.898 1102.23 571.31 1102.23 571.31Z" fill="#757EFF"/>
<path fill-rule="evenodd" clip-rule="evenodd" d="M1480.11 698.734C1480.11 698.734 1483.24 721.952 1480.76 726.562C1479.55 728.808 1471.2 736.838 1439.54 741.18C1436.02 744.875 1452.86 781.964 1459.44 788.122C1466.01 794.281 1487.11 797.565 1527.26 765.954C1567.4 734.342 1561.6 734.752 1561.6 734.752C1561.6 734.752 1539.11 734.268 1533.88 726.13C1532.04 723.277 1530.01 679.705 1534.45 666.555C1538.9 653.406 1480.11 698.734 1480.11 698.734Z" fill="#757EFF"/>
<path fill-rule="evenodd" clip-rule="evenodd" d="M1656.43 802.162C1656.43 802.162 1736.82 879.988 1756.84 899.869C1772.09 915.006 1850.43 989.54 1899.26 1033.92C1914.56 1047.83 1936.81 1055.07 1952.12 1063.39C1959.16 1067.21 1984.64 1080.57 1982.63 1085.11C1980.9 1089.04 1949.7 1084.53 1941.1 1087.97C1949.22 1095.82 1947.64 1103.22 1933.69 1098.87C1914.42 1092.87 1905.63 1074.91 1890.08 1064.22C1871.12 1051.19 1733.64 980.56 1697.1 945.112C1670.29 919.107 1606.2 883.397 1606.2 883.397L1656.43 802.162Z" fill="#757EFF"/>
<path fill-rule="evenodd" clip-rule="evenodd" d="M1631.72 906.755C1616.14 894.304 1585.75 873.1 1585.75 873.1C1585.75 873.1 1649.6 1039.48 1647.67 1062.88C1646.88 1072.37 1605.33 1070.31 1556.55 1084.77C1475.33 1108.85 1389.32 1103.05 1397.53 1064.81C1411.33 1000.49 1393.59 846.338 1393.59 846.338L1306.14 811.814C1295.89 792.848 1299.2 717.805 1312.51 713.207C1316.03 711.993 1414.01 735.917 1414.01 735.917C1414.01 735.917 1453.14 733.293 1455.55 734.582C1457.96 735.872 1463.58 771.123 1471.44 772.76C1493.4 777.337 1561.22 731.265 1561.22 731.265C1561.22 731.265 1594.51 736.55 1612.6 752.075C1625.01 762.718 1710.91 847.239 1710.91 847.239C1710.91 847.239 1647.3 919.206 1631.72 906.755Z" fill="#3615F6"/>
<path fill-rule="evenodd" clip-rule="evenodd" d="M1586.06 873.934C1584.29 870.425 1571.17 858.202 1563.13 851.554C1556.46 846.039 1553.29 844.357 1563 854.653C1566.51 857.8 1583.5 876.426 1586.06 873.934Z" fill="black"/>
<path fill-rule="evenodd" clip-rule="evenodd" d="M1391.95 816.17C1391.68 817.098 1391.31 835.132 1393.5 844.398C1393.68 845.162 1393.78 846.061 1394.02 846.15C1395.37 846.666 1394.58 830.933 1393.98 823.185C1393.24 813.613 1392.43 814.599 1391.95 816.17Z" fill="black"/>
<path fill-rule="evenodd" clip-rule="evenodd" d="M1442.78 532.541C1442.78 532.541 1400.48 558.687 1407.88 610.205C1412.57 642.818 1397.63 650.782 1407.88 688.553C1412.57 705.823 1422 722.292 1441.17 726.035C1455.65 728.864 1490.93 722.305 1516.43 705.823C1530.94 696.438 1538.04 683.283 1543.93 664.63C1560.54 663.24 1579.81 637.179 1565.37 626.652C1561.98 624.186 1558.57 623.275 1554.96 623.796C1560.53 598.903 1559.61 589.403 1559.61 578.225C1559.61 562.7 1578.49 544.072 1542.78 540.081C1507.07 536.089 1450.29 522.596 1442.78 532.541Z" fill="#757EFF"/>
<path fill-rule="evenodd" clip-rule="evenodd" d="M1560.29 639.024C1555.62 633.178 1547.49 636.386 1543.85 641.722C1542.19 644.162 1541.56 648.71 1542.44 649.712C1542.65 649.953 1543.21 648.132 1543.59 647.403C1547.06 640.765 1550.46 637.571 1559.62 640.02C1560.18 640.159 1560.65 639.48 1560.29 639.024Z" fill="#090E2B"/>
<path fill-rule="evenodd" clip-rule="evenodd" d="M1544.8 645.643C1550.15 645.795 1547.88 654.889 1549.81 652.4C1550.8 648.585 1549.38 643.601 1544.9 642.91C1542.87 642.558 1542.74 645.847 1544.8 645.643Z" fill="#090E2B"/>
<path fill-rule="evenodd" clip-rule="evenodd" d="M1482.34 723.532C1491.78 721.633 1498.03 717.764 1506.47 713.526C1506.97 713.246 1516.01 707.371 1516.32 706.544C1516.71 705.488 1515.85 706.119 1515.21 706.544C1507.77 711.502 1488.29 718.829 1476.46 722.123C1475.96 722.203 1472.74 723.52 1474.4 723.838C1475.03 723.959 1478.59 724.286 1482.34 723.532Z" fill="#090E2B"/>
<path fill-rule="evenodd" clip-rule="evenodd" d="M1522.64 650.137C1519.4 643.221 1522.97 628.081 1528.31 616.166C1530.9 610.389 1536.31 568.411 1515.83 570.224C1494.81 572.085 1485.87 575.169 1465.84 574.771C1453.16 574.519 1430.64 564.159 1430.3 560.61C1425.21 563.522 1411.85 566.137 1407.44 589.882C1398.94 580.71 1399.79 567.942 1401.93 555.909C1405.15 537.854 1425.92 536.373 1428.31 536.077C1425.58 529.272 1431.78 513.672 1439.28 506.488C1444.57 501.423 1459.73 484.808 1482.65 487.444C1495.28 488.896 1499.44 502.939 1499.44 502.939C1504.54 499.685 1523.92 498.227 1536.7 502.951C1558.07 510.846 1542.32 524.242 1539.93 526.905C1545.72 528.385 1566.69 539.014 1575.29 555.909C1586.46 577.822 1578.98 599.249 1568.49 613.011C1558.01 626.773 1552.4 621.887 1540.87 631.841C1534.19 641.242 1525.64 656.558 1522.64 650.137Z" fill="#090E2B"/>
<path fill-rule="evenodd" clip-rule="evenodd" d="M1505.23 607.868C1504 599.779 1480.72 595.346 1469.96 600.79C1466.24 602.648 1459.2 607.976 1464.86 611.539C1466.36 612.318 1467.91 611.736 1469.25 611.008C1484 602.274 1506.08 613.506 1505.23 607.868Z" fill="#090E2B"/>
<path fill-rule="evenodd" clip-rule="evenodd" d="M1485.16 620.941C1490.37 622.806 1494.62 627.362 1494.8 630.905C1494.91 633.046 1486.16 637.56 1478.04 637.394C1467.37 637.175 1462.41 631.077 1462.55 629.249C1463.66 623.762 1470.68 615.751 1485.16 620.941Z" fill="white"/>
<path fill-rule="evenodd" clip-rule="evenodd" d="M1468.48 622.948C1477.09 617.377 1489.48 622.257 1494.8 630.905C1495.11 631.355 1495.09 630.274 1494.89 629.768C1492.46 623.638 1487.52 620.481 1481.65 618.846C1478.12 617.862 1474.78 617.57 1471.18 618.882C1469.79 619.388 1467.27 621.05 1465.28 622.988C1463.73 624.5 1462.32 627.178 1464.06 626.317C1465.41 625.642 1467.34 623.688 1468.48 622.948Z" fill="#090E2B"/>
<path fill-rule="evenodd" clip-rule="evenodd" d="M1478.38 634.168C1473.83 633.852 1470.38 630.256 1470.67 626.136C1470.96 622.016 1474.88 618.931 1479.43 619.247C1483.97 619.562 1487.42 623.159 1487.13 627.279C1486.84 631.4 1482.92 634.484 1478.38 634.168Z" fill="#090E2B"/>
<path fill-rule="evenodd" clip-rule="evenodd" d="M1420.48 602.024C1417.1 603.512 1412.61 608.45 1416.35 608.45C1420.09 608.45 1428.2 607.395 1433.63 609.622C1435.53 610.104 1436.97 611.027 1438.87 611.252C1443.21 612.091 1445.57 606.931 1442.5 603.812C1439.04 600.288 1427.34 598.617 1420.48 602.024Z" fill="#090E2B"/>
<path fill-rule="evenodd" clip-rule="evenodd" d="M1424.3 634.397C1418.9 633.148 1414.85 628.278 1415.31 624.639C1416.2 619.817 1425.55 616.738 1430.79 619.371C1435.97 621.978 1439.22 627.803 1438.8 630.103C1438.19 631.695 1429.83 635.674 1424.3 634.397Z" fill="white"/>
<path fill-rule="evenodd" clip-rule="evenodd" d="M1428.78 631.769C1425.22 631.769 1422.33 629.015 1422.33 625.619C1422.33 622.222 1424.36 619.012 1428.78 619.469C1432.32 619.835 1435.23 622.222 1435.23 625.619C1435.23 629.015 1432.34 631.769 1428.78 631.769Z" fill="#090E2B"/>
<path fill-rule="evenodd" clip-rule="evenodd" d="M1438.61 626.8C1436.56 619.226 1427.34 615.331 1420.04 618.917C1419.02 619.449 1417.35 620.643 1416.1 622.085C1414.95 623.415 1415.1 624.112 1415.57 623.974C1416.35 623.744 1417.99 622.279 1419.33 621.649C1426.09 618.466 1433.11 620.252 1438.26 627.721C1438.51 628.108 1438.75 627.237 1438.61 626.8Z" fill="#090E2B"/>
<path fill-rule="evenodd" clip-rule="evenodd" d="M1439.07 656.501C1440.06 661.42 1446.14 661.898 1450.11 660.784C1453.33 659.878 1454.16 658.014 1453.07 657.416C1451.3 656.442 1445.61 659.151 1443.51 656.565C1439.76 651.954 1451.25 634.997 1447.6 637.722C1442.78 641.322 1438.42 653.218 1439.07 656.501Z" fill="#090E2B"/>
<path fill-rule="evenodd" clip-rule="evenodd" d="M1442.9 678.87C1446.35 680.587 1451.28 682.358 1456.94 681.553C1462.61 680.749 1465.66 677.454 1466.9 675.038C1469.03 670.906 1466.56 667.801 1463.32 668.835C1460.08 669.87 1458.22 674.321 1455.04 675.094C1451.14 676.043 1444.69 673.071 1441.01 672.113C1437.15 671.108 1430.75 670.734 1430.75 677.162C1430.75 680.76 1432.9 680.03 1434.62 677.892C1436.35 675.754 1439.44 677.152 1442.9 678.87Z" fill="#090E2B"/>
<path fill-rule="evenodd" clip-rule="evenodd" d="M1444.64 685.861C1449.09 685.224 1453.3 685.782 1453.06 688.728C1452.82 691.675 1445.17 694.192 1441.76 689.684C1441.03 688.729 1440.19 686.498 1444.64 685.861Z" fill="#090E2B"/>
<path fill-rule="evenodd" clip-rule="evenodd" d="M1495.85 671.486C1504.56 668.037 1499.04 678.031 1490.43 682.118C1476.31 688.813 1455.07 688.813 1448.11 680.244C1441.15 671.675 1444.7 665.034 1450.98 664.062C1469.82 661.149 1481.24 677.276 1495.85 671.486Z" fill="#090E2B"/>
<path fill-rule="evenodd" clip-rule="evenodd" d="M1420.5 670.172C1417.08 669.133 1416.07 666.071 1415.69 669.133C1415.34 671.881 1417.03 676.108 1421.48 678.764C1428.4 682.899 1441.84 683.417 1444.23 673.354C1445.83 666.566 1442.46 663.772 1437.5 663.198C1431.2 662.468 1425.63 671.729 1420.5 670.172Z" fill="#090E2B"/>
<g opacity="0.5">
<path fill-rule="evenodd" clip-rule="evenodd" d="M232.888 309.782C232.888 376.918 287.696 431.358 355.334 431.358C372.386 431.358 388.583 427.878 403.311 421.634L461.961 448.37L436.182 401.018C461.667 378.762 477.744 346.158 477.744 309.782C477.744 242.602 422.928 188.162 355.334 188.162C287.696 188.162 232.888 242.602 232.888 309.782Z" fill="#FFB201"/>
<path d="M418.464 269.661H297.645C294.309 269.661 291.604 272.348 291.604 275.661C291.604 278.975 294.309 281.661 297.645 281.661H418.464C421.8 281.661 424.505 278.975 424.505 275.661C424.505 272.348 421.8 269.661 418.464 269.661Z" fill="white"/>
<path d="M403.362 303.661H297.645C294.309 303.661 291.604 306.348 291.604 309.661C291.604 312.975 294.309 315.661 297.645 315.661H403.362C406.698 315.661 409.403 312.975 409.403 309.661C409.403 306.348 406.698 303.661 403.362 303.661Z" fill="white"/>
<path d="M365.102 337.661H297.645C294.309 337.661 291.604 340.348 291.604 343.661C291.604 346.975 294.309 349.661 297.645 349.661H365.102C368.439 349.661 371.143 346.975 371.143 343.661C371.143 340.348 368.439 337.661 365.102 337.661Z" fill="white"/>
</g>
</svg>
